<svg width="557" height="363" viewBox="0 0 557 363" fill="none" xmlns="http://www.w3.org/2000/svg">
<path d="M278.452 0C200.324 0 137.763 29.8179 92.2209 65.3076C46.9686 100.473 16.7037 142.607 2.39315 171.534C-0.797717 177.935 -0.797717 185.065 2.39315 191.466C16.7037 220.393 46.9686 262.527 92.2209 297.692C137.763 333.182 200.324 363 278.452 363C356.58 363 419.14 333.182 464.682 297.692C509.935 262.446 540.2 220.393 554.607 191.466C557.798 185.065 557.798 177.935 554.607 171.534C540.2 142.607 509.935 100.473 464.682 65.3076C419.14 29.8179 356.58 0 278.452 0ZM139.214 181.5C139.214 150.555 153.883 120.877 179.996 98.9958C206.108 77.1143 241.523 64.8214 278.452 64.8214C315.38 64.8214 350.796 77.1143 376.908 98.9958C403.02 120.877 417.69 150.555 417.69 181.5C417.69 212.445 403.02 242.123 376.908 264.004C350.796 285.886 315.38 298.179 278.452 298.179C241.523 298.179 206.108 285.886 179.996 264.004C153.883 242.123 139.214 212.445 139.214 181.5ZM234.5 108.5C215.47 119.176 216.624 117.441 203.519 128.118C194.5 138 192.98 139.05 186.5 160C183.406 175.421 185.363 192.178 186.5 195.5C188.58 201.577 188.147 199.467 195.201 213.529C205.912 234.882 252.925 267.713 302.432 256.612C351.938 245.511 381.333 202.81 368.086 161.324C357.353 127.698 321.867 105.092 282.416 103.714C276.808 103.552 274.179 103.714 263.507 103.714C252.834 103.714 246.5 103 234.5 108.5Z" fill="#6F9DFF"/>
</svg>
