<svg width="581" height="581" viewBox="0 0 581 581" fill="none" xmlns="http://www.w3.org/2000/svg">
<circle cx="290.5" cy="290.5" r="275.5" stroke="white" stroke-width="30"/>
<path d="M266.086 160.941C266.086 151.967 268.145 145.567 272.265 141.74C276.517 137.913 282.23 136 289.405 136C296.315 136 301.896 137.913 306.148 141.74C310.4 145.567 312.526 151.967 312.526 160.941C312.526 169.782 310.4 176.183 306.148 180.141C301.896 184.1 296.315 186.08 289.405 186.08C282.23 186.08 276.517 184.1 272.265 180.141C268.145 176.183 266.086 169.782 266.086 160.941ZM233 444V426.977H238.381C248.48 426.977 256.585 425.261 262.698 421.83C268.81 418.399 271.866 411.075 271.866 399.859V271.393C271.866 260.045 268.743 252.589 262.498 249.026C256.253 245.463 248.214 243.681 238.381 243.681H237.186V226.658H310.134V397.879C310.134 409.888 313.19 417.74 319.302 421.434C325.415 425.129 333.52 426.977 343.619 426.977H349V444H233Z" fill="white"/>
</svg>
