<svg width="142" height="136" viewBox="0 0 142 136" fill="none" xmlns="http://www.w3.org/2000/svg">
<path d="M59.7133 97.0795C59.6979 95.8081 59.4305 94.2142 58.911 92.2977C58.5138 90.2246 58.1509 88.4303 57.8224 86.9146L46.1401 90.2659L29.9624 95.0208C26.4081 96.0252 22.8117 96.1153 19.1732 95.291C15.8134 94.4323 12.7246 92.9036 9.90678 90.7048C6.30627 87.8952 3.69071 84.4689 2.06008 80.426C0.551616 76.2265 0.436638 71.855 1.71517 67.3117C2.13502 66.1281 2.65034 65.1449 3.26112 64.3622C5.33777 61.701 7.87456 59.9025 10.8715 58.9668C25.6462 54.8803 39.2088 51.8628 51.5594 49.9145C53.789 49.6394 56.0186 49.3643 58.2482 49.0892C60.7565 48.7797 62.1939 48.3901 62.5603 47.9205C62.8047 47.6074 62.7893 46.3361 62.5142 44.1065C62.5177 41.8425 62.7046 39.3437 63.0746 36.61C63.3913 34.5904 63.4501 30.4804 63.2509 24.2802L63.582 13.2046C63.7421 11.0628 64.3642 8.65174 65.4482 5.9715C66.5322 3.29126 67.2842 1.35935 67.704 0.175771C69.0441 0.717774 71.1765 1.37423 74.101 2.14515C80.2288 3.6526 83.9877 5.45235 85.3776 7.54439C88.4171 12.6867 90.7083 17.497 92.2512 21.9752C94.0727 26.419 94.3709 30.5556 93.1458 34.3851C92.6381 36.0039 92.0256 37.9186 91.308 40.1292C90.7127 42.1833 90.4055 43.7066 90.3865 44.6993C90.3675 45.6919 90.5928 46.3715 91.0624 46.7379C91.6886 47.2266 93.2558 47.3161 95.7641 47.0066C98.429 46.8193 101.773 46.4066 105.797 45.7687C108.863 45.3904 112.12 45.413 115.567 45.8364C119.137 46.1033 122.585 46.5268 125.91 47.1067C129.235 47.6867 131.994 48.8318 134.185 50.542C136.69 52.4965 138.489 55.0333 139.581 58.1524C140.673 61.2714 141.355 65.0778 141.626 69.5714C141.451 70.4419 141.119 71.1902 140.63 71.8164C139.897 72.7556 138.868 73.5899 137.544 74.3193C136.376 75.1708 135.312 75.7264 134.354 75.9861C126.898 77.472 118.302 78.3204 108.567 78.5313C107.574 78.5123 106.442 78.5105 105.171 78.5259C104.056 78.6635 102.863 78.74 101.591 78.7554C97.7774 78.8016 94.6162 78.9794 92.1079 79.2889C89.7218 79.4418 88.1622 79.9879 87.4293 80.9272C86.5742 82.023 86.2213 84.896 86.3707 89.5461L86.1428 101.458C85.1168 111.487 83.7985 119.148 82.1879 124.44C81.8024 125.902 80.9378 127.494 79.5941 129.216C78.6169 130.469 77.6224 131.582 76.6108 132.555C75.5991 133.529 74.6047 134.642 73.6275 135.894C71.6802 133.871 70.002 132.31 68.5931 131.21C68.1235 130.844 66.9151 129.649 64.9677 127.626C63.0204 125.602 61.6305 123.51 60.798 121.349C59.8623 118.353 59.3886 115.086 59.3768 111.551C59.6437 107.981 59.7428 105.918 59.674 105.36L59.7133 97.0795Z" fill="white"/>
</svg>
