<svg width="396" height="396" viewBox="0 0 396 396" fill="none" xmlns="http://www.w3.org/2000/svg">
<circle cx="198" cy="198" r="198" fill="#171D1C"/>
<path d="M186.747 291.277C164.571 291.277 150.447 281.773 144.375 262.765C146.487 262.765 149.259 262.897 152.691 263.161C156.387 263.161 159.423 263.425 161.799 263.953C165.495 264.481 168.135 264.745 169.719 264.745C181.599 264.745 191.499 259.465 199.419 248.905C204.963 241.249 207.735 233.461 207.735 225.541C207.735 220.261 206.415 215.113 203.775 210.097C197.967 199.801 190.839 188.449 182.391 176.041C176.847 167.857 171.831 160.069 167.343 152.677C162.063 144.229 159.423 134.857 159.423 124.561C159.423 115.057 162.063 106.741 167.343 99.613C172.887 92.221 180.939 87.601 191.499 85.753L204.171 83.377C217.899 80.737 228.195 79.417 235.059 79.417C246.411 79.417 256.443 82.057 265.155 87.337C267.003 88.657 268.851 91.033 270.699 94.465C272.811 97.633 274.395 100.141 275.451 101.989C273.603 102.781 270.963 104.101 267.531 105.949C264.363 107.533 261.591 108.457 259.215 108.721C255.519 109.249 249.975 109.513 242.583 109.513C235.455 109.513 230.043 109.645 226.347 109.909C217.899 110.701 211.167 113.605 206.151 118.621C201.399 123.373 199.023 129.181 199.023 136.045C199.023 141.325 200.607 146.737 203.775 152.281C210.903 164.161 220.803 177.757 233.475 193.069C242.979 204.949 247.731 217.225 247.731 229.897C247.731 236.761 246.147 244.021 242.979 251.677C232.155 278.077 213.411 291.277 186.747 291.277Z" fill="#00A676"/>
<path fill-rule="evenodd" clip-rule="evenodd" d="M192.075 25.5002C197.357 23.3714 203.365 25.928 205.494 31.2106C219.864 66.8684 224.703 95.6995 224.223 121.559C223.745 147.261 218.001 169.501 212.071 191.415C211.739 192.644 211.405 193.875 211.07 195.107C199.603 237.363 187.521 281.881 205.956 358.529C207.288 364.066 203.878 369.635 198.341 370.967C192.803 372.299 187.234 368.889 185.903 363.352C166.236 281.579 179.42 232.991 191.182 189.645C191.51 188.436 191.837 187.23 192.162 186.028C198.092 164.114 203.176 144.072 203.601 121.177C204.023 98.4388 199.839 72.3559 186.364 38.9198C184.235 33.6372 186.792 27.6291 192.075 25.5002Z" fill="#00A676"/>
</svg>
