<svg width="30" height="30" viewBox="0 0 30 30" fill="none" xmlns="http://www.w3.org/2000/svg">
<mask id="mask0_64_87" style="mask-type:alpha" maskUnits="userSpaceOnUse" x="0" y="0" width="30" height="30">
<path fill-rule="evenodd" clip-rule="evenodd" d="M15 21.6019C18.6461 21.6019 21.6019 18.6461 21.6019 15C21.6019 11.3539 18.6461 8.39813 15 8.39813C11.3539 8.39813 8.39813 11.3539 8.39813 15C8.39813 18.6461 11.3539 21.6019 15 21.6019ZM15 30C23.2843 30 30 23.2843 30 15C30 6.71573 23.2843 0 15 0C6.71573 0 0 6.71573 0 15C0 23.2843 6.71573 30 15 30Z" fill="black"/>
</mask>
<g mask="url(#mask0_64_87)">
<path fill-rule="evenodd" clip-rule="evenodd" d="M15 19.9673C17.7434 19.9673 19.9673 17.7434 19.9673 15C19.9673 12.2566 17.7434 10.0327 15 10.0327C12.2567 10.0327 10.0327 12.2566 10.0327 15C10.0327 17.7434 12.2567 19.9673 15 19.9673ZM15 24.5454C20.2719 24.5454 24.5455 20.2718 24.5455 15C24.5455 9.72818 20.2719 5.45454 15 5.45454C9.72824 5.45454 5.45459 9.72818 5.45459 15C5.45459 20.2718 9.72824 24.5454 15 24.5454Z" fill="white"/>
<path d="M12.2729 3.62619C12.2729 2.00006 13.3781 0.681824 14.7414 0.681824H15.259C16.6223 0.681824 17.7275 2.00006 17.7275 3.62619V26.3738C17.7275 27.9999 16.6223 29.3182 15.259 29.3182H14.7414C13.3781 29.3182 12.2729 27.9999 12.2729 26.3738V3.62619Z" fill="white"/>
<path d="M4.82992 9.41359C3.68903 8.29526 3.67075 6.4638 4.78908 5.32291L5.21366 4.88977C6.33199 3.74888 8.16345 3.7306 9.30434 4.84893L25.264 20.4931C26.4049 21.6114 26.4232 23.4429 25.3048 24.5837L24.8802 25.0169C23.7619 26.1578 21.9305 26.1761 20.7896 25.0577L4.82992 9.41359Z" fill="white"/>
<path d="M3.6265 17.7273C2.00037 17.7273 0.682129 16.6221 0.682129 15.2588L0.682129 14.7412C0.682129 13.3779 2.00037 12.2727 3.6265 12.2727L26.3741 12.2727C28.0003 12.2727 29.3185 13.3779 29.3185 14.7412V15.2588C29.3185 16.6221 28.0003 17.7273 26.3741 17.7273H3.6265Z" fill="white"/>
<path d="M9.50685 25.1704C8.38852 26.3113 6.55706 26.3296 5.41618 25.2112L4.98303 24.7866C3.84215 23.6683 3.82386 21.8369 4.94219 20.696L20.5863 4.73632C21.7047 3.59543 23.5361 3.57715 24.677 4.69548L25.1102 5.12006C26.251 6.23839 26.2693 8.06985 25.151 9.21074L9.50685 25.1704Z" fill="white"/>
</g>
</svg>
