<svg width="161" height="80" viewBox="0 0 161 80" fill="none" xmlns="http://www.w3.org/2000/svg">
<path d="M107.806 60.6667C102.674 60.6667 99.4052 58.4685 98 54.0723C98.4888 54.0723 99.1302 54.1028 99.9245 54.1639C100.78 54.1639 101.482 54.2249 102.032 54.347C102.888 54.4691 103.498 54.5302 103.865 54.5302C106.614 54.5302 108.905 53.309 110.738 50.8667C112.021 49.0959 112.663 47.2947 112.663 45.4629C112.663 44.2417 112.357 43.0511 111.746 41.891C110.402 39.5096 108.753 36.8841 106.798 34.0143C105.515 32.1215 104.354 30.3202 103.315 28.6106C102.093 26.6567 101.482 24.4891 101.482 22.1078C101.482 19.9096 102.093 17.9863 103.315 16.3377C104.598 14.628 106.462 13.5595 108.905 13.1321L111.838 12.5825C115.015 11.972 117.397 11.6667 118.986 11.6667C121.613 11.6667 123.935 12.2772 125.951 13.4984C126.378 13.8037 126.806 14.3533 127.234 15.147C127.722 15.8797 128.089 16.4598 128.333 16.8872C127.906 17.0704 127.295 17.3757 126.501 17.8031C125.767 18.1695 125.126 18.3832 124.576 18.4442C123.721 18.5663 122.438 18.6274 120.727 18.6274C119.078 18.6274 117.825 18.6579 116.97 18.719C115.015 18.9022 113.457 19.5738 112.296 20.7339C111.196 21.833 110.647 23.1763 110.647 24.7639C110.647 25.985 111.013 27.2367 111.746 28.519C113.396 31.2667 115.687 34.4112 118.619 37.9526C120.819 40.7003 121.918 43.5396 121.918 46.4704C121.918 48.0579 121.552 49.7371 120.819 51.5078C118.314 57.6137 113.976 60.6667 107.806 60.6667Z" fill="#00A676"/>
<path fill-rule="evenodd" clip-rule="evenodd" d="M108.914 0.171763C110.187 -0.315641 111.634 0.269708 112.147 1.47918C115.609 9.64312 116.775 16.2441 116.659 22.1648C116.544 28.0493 115.16 33.1411 113.732 38.1584C113.651 38.4399 113.571 38.7216 113.49 39.0037C110.728 48.6784 107.817 58.8709 112.258 76.4196C112.579 77.6874 111.758 78.9624 110.424 79.2673C109.09 79.5723 107.748 78.7917 107.427 77.5238C102.689 58.8018 105.865 47.6775 108.699 37.7533C108.778 37.4763 108.857 37.2003 108.935 36.925C110.364 31.9078 111.589 27.3192 111.691 22.0771C111.793 16.8713 110.784 10.8995 107.538 3.24423C107.025 2.03476 107.641 0.659168 108.914 0.171763Z" fill="#00A676"/>
<path d="M30.5821 26.7638C30.3399 27.2583 29.5651 28.6181 28.2575 30.8432C29.4682 31.585 30.3157 32.0547 30.8 32.2525C33.3667 33.2415 35.2796 34.7496 36.5387 36.777C37.8462 38.7549 38.5 40.9554 38.5 43.3784C38.5 45.7519 37.8947 48.1006 36.684 50.4247C33.6814 56.1112 28.8387 60.6605 22.1557 64.0724C20.5091 64.913 18.8868 65.3333 17.2887 65.3333C14.9642 65.3333 12.8091 64.4927 10.8236 62.8115C10.0487 62.1686 9.12862 61.4516 8.06321 60.6605C7.96635 60.9572 7.84528 61.3033 7.7 61.6989C7.60314 62.1439 7.48208 62.4653 7.33679 62.6631C6.75566 63.5532 6.02925 63.9982 5.15755 63.9982C4.3827 63.9982 3.6805 63.6768 3.05094 63.034C1.30755 61.4022 0.435849 59.5479 0.435849 57.4711C0.435849 55.8887 0.411635 54.5042 0.363208 53.3174C0.31478 52.1307 0.266352 51.1417 0.217925 50.3505C0.169497 49.3616 0.121069 48.1254 0.0726416 46.6419C0.0242139 45.1585 0 43.4278 0 41.4499C0 37.6918 0.193711 34.3293 0.581132 31.3625C1.11384 27.011 2.13082 22.9315 3.63208 19.124C4.79434 16.2561 6.51352 14.0062 8.78962 12.3744C11.1142 10.7426 13.8503 9.77835 16.9981 9.48166C18.4509 9.38276 19.5648 9.33331 20.3396 9.33331C23.9233 9.33331 26.9258 10.1245 29.3472 11.7068C30.6063 12.498 31.5748 13.5364 32.2528 14.8221C32.9792 16.1077 33.3424 17.4923 33.3424 18.9757C33.3424 20.2119 33.0761 21.4481 32.5434 22.6843L31.817 24.1678C31.478 24.9589 31.0664 25.8243 30.5821 26.7638ZM24.8434 20.6075C25.0855 19.9647 25.3035 18.9015 25.4972 17.4181L25.7151 15.7863C24.2623 15.1435 22.8821 14.8221 21.5745 14.8221C20.4607 14.8221 19.4195 14.9951 18.4509 15.3413C16.3686 16.0335 14.6252 17.0967 13.2208 18.5307C11.8648 19.9152 10.7752 21.4481 9.95189 23.1293C9.17704 24.8106 8.4022 26.8874 7.62736 29.3598C7.04623 31.2883 6.75566 33.4393 6.75566 35.8128C6.75566 37.0984 6.85252 38.9775 7.04623 41.4499C7.14308 42.1916 7.23994 43.4031 7.33679 45.0843C7.38522 46.4194 7.65157 49.1638 8.13585 53.3174L8.42642 55.7651C8.71698 55.864 9.20126 55.9629 9.87924 56.0618C10.7994 56.1607 11.5016 56.3585 11.9858 56.6552C12.4217 56.9024 12.8575 57.3227 13.2934 57.9161C13.7292 58.46 14.0682 58.8803 14.3104 59.177C17.216 58.5836 19.6858 57.3722 21.7198 55.5426C23.8022 53.713 25.8362 51.3395 27.8217 48.4221C29.323 46.0486 30.2673 43.9223 30.6547 42.0433C30.8 41.3015 30.8726 40.634 30.8726 40.0406C30.8726 38.7055 30.5094 37.6918 29.783 36.9995C29.105 36.3073 28.1607 35.9611 26.95 35.9611C26.2236 35.9611 25.5456 36.06 24.916 36.2578C22.7368 36.9006 20.5091 38.3099 18.233 40.4856C17.0708 41.524 15.9085 42.0433 14.7462 42.0433C14.0198 42.0433 13.2692 41.8207 12.4943 41.3757C11.5742 40.8318 10.7994 40.2384 10.1698 39.5956C9.54025 38.9527 9.00755 38.1121 8.5717 37.0737L10.2425 35.887C11.9858 34.6013 13.3176 33.6865 14.2377 33.1426C18.9352 30.5713 22.4704 26.3929 24.8434 20.6075Z" fill="#87BCDE"/>
<path d="M79.3423 26.7638C79.0928 27.2583 78.2945 28.6181 76.9473 30.8432C78.1947 31.585 79.0679 32.0547 79.5668 32.2525C82.2113 33.2415 84.1821 34.7496 85.4794 36.777C86.8266 38.7549 87.5002 40.9554 87.5002 43.3784C87.5002 45.7519 86.8765 48.1006 85.6291 50.4247C82.5356 56.1112 77.5461 60.6605 70.6605 64.0724C68.9641 64.913 67.2926 65.3333 65.6461 65.3333C63.2511 65.3333 61.0308 64.4927 58.9851 62.8115C58.1867 62.1686 57.2387 61.4516 56.141 60.6605C56.0413 60.9572 55.9165 61.3033 55.7668 61.6989C55.667 62.1439 55.5423 62.4653 55.3926 62.6631C54.7939 63.5532 54.0454 63.9982 53.1473 63.9982C52.349 63.9982 51.6255 63.6768 50.9769 63.034C49.1807 61.4022 48.2826 59.5479 48.2826 57.4711C48.2826 55.8887 48.2576 54.5042 48.2077 53.3174C48.1578 52.1307 48.1079 51.1417 48.058 50.3505C48.0081 49.3616 47.9582 48.1254 47.9083 46.6419C47.8584 45.1585 47.8335 43.4278 47.8335 41.4499C47.8335 37.6918 48.0331 34.3293 48.4322 31.3625C48.9811 27.011 50.0289 22.9315 51.5756 19.124C52.7731 16.2561 54.5444 14.0062 56.8895 12.3744C59.2844 10.7426 62.1035 9.77835 65.3467 9.48166C66.8436 9.38276 67.9911 9.33331 68.7895 9.33331C72.4817 9.33331 75.5752 10.1245 78.07 11.7068C79.3672 12.498 80.3651 13.5364 81.0637 14.8221C81.8121 16.1077 82.1863 17.4923 82.1863 18.9757C82.1863 20.2119 81.9119 21.4481 81.3631 22.6843L80.6146 24.1678C80.2654 24.9589 79.8413 25.8243 79.3423 26.7638ZM73.4297 20.6075C73.6792 19.9647 73.9037 18.9015 74.1033 17.4181L74.3278 15.7863C72.831 15.1435 71.409 14.8221 70.0618 14.8221C68.9142 14.8221 67.8415 14.9951 66.8436 15.3413C64.6981 16.0335 62.9018 17.0967 61.4549 18.5307C60.0578 19.9152 58.9352 21.4481 58.087 23.1293C57.2886 24.8106 56.4903 26.8874 55.692 29.3598C55.0932 31.2883 54.7939 33.4393 54.7939 35.8128C54.7939 37.0984 54.8937 38.9775 55.0932 41.4499C55.193 42.1916 55.2928 43.4031 55.3926 45.0843C55.4425 46.4194 55.7169 49.1638 56.2159 53.3174L56.5153 55.7651C56.8146 55.864 57.3136 55.9629 58.0121 56.0618C58.9601 56.1607 59.6836 56.3585 60.1826 56.6552C60.6316 56.9024 61.0807 57.3227 61.5297 57.9161C61.9788 58.46 62.328 58.8803 62.5775 59.177C65.5712 58.5836 68.1159 57.3722 70.2115 55.5426C72.357 53.713 74.4526 51.3395 76.4983 48.4221C78.045 46.0486 79.018 43.9223 79.4171 42.0433C79.5668 41.3015 79.6417 40.634 79.6417 40.0406C79.6417 38.7055 79.2675 37.6918 78.519 36.9995C77.8205 36.3073 76.8475 35.9611 75.6002 35.9611C74.8517 35.9611 74.1532 36.06 73.5046 36.2578C71.2593 36.9006 68.9641 38.3099 66.619 40.4856C65.4215 41.524 64.2241 42.0433 63.0266 42.0433C62.2781 42.0433 61.5048 41.8207 60.7065 41.3757C59.7584 40.8318 58.9601 40.2384 58.3115 39.5956C57.6628 38.9527 57.114 38.1121 56.6649 37.0737L58.3863 35.887C60.1826 34.6013 61.5547 33.6865 62.5027 33.1426C67.3425 30.5713 70.9849 26.3929 73.4297 20.6075Z" fill="#87BCDE"/>
<path d="M141 39.9999C141 38.7726 141.995 37.7777 143.222 37.7777H158.778C160.005 37.7777 161 38.7726 161 39.9999C161 41.2272 160.005 42.2221 158.778 42.2221H143.222C141.995 42.2221 141 41.2272 141 39.9999Z" fill="#DC9596"/>
<path d="M151 50C149.773 50 148.778 49.0051 148.778 47.7778V32.2222C148.778 30.9949 149.773 30 151 30C152.227 30 153.222 30.9949 153.222 32.2222V47.7778C153.222 49.0051 152.227 50 151 50Z" fill="#DC9596"/>
</svg>
