<svg width="57" height="45" viewBox="0 0 57 45" fill="none" xmlns="http://www.w3.org/2000/svg">
<path d="M48.2024 28.9439C46.003 28.9439 44.6022 28.0013 44 26.1161C44.2095 26.1161 44.4844 26.1292 44.8248 26.1554C45.1913 26.1554 45.4924 26.1816 45.7281 26.234C46.0947 26.2863 46.3565 26.3125 46.5136 26.3125C47.6918 26.3125 48.6737 25.7888 49.4592 24.7415C50.0091 23.9822 50.284 23.2098 50.284 22.4243C50.284 21.9006 50.1531 21.3901 49.8912 20.8926C49.3152 19.8714 48.6083 18.7455 47.7704 17.5149C47.2205 16.7033 46.7231 15.9308 46.2779 15.1977C45.7543 14.3598 45.4924 13.4303 45.4924 12.4092C45.4924 11.4666 45.7543 10.6418 46.2779 9.93487C46.8278 9.20174 47.6264 8.74354 48.6737 8.56025L49.9305 8.3246C51.292 8.06277 52.3132 7.93185 52.994 7.93185C54.1198 7.93185 55.1148 8.19369 55.9789 8.71735C56.1621 8.84827 56.3454 9.08392 56.5287 9.4243C56.7382 9.7385 56.8953 9.98724 57 10.1705C56.8167 10.2491 56.5549 10.38 56.2145 10.5633C55.9003 10.7204 55.6254 10.812 55.3897 10.8382C55.0232 10.8906 54.4733 10.9167 53.7402 10.9167C53.0332 10.9167 52.4965 10.9298 52.1299 10.956C51.292 11.0346 50.6244 11.3226 50.1269 11.8201C49.6556 12.2914 49.4199 12.8674 49.4199 13.5482C49.4199 14.0718 49.577 14.6086 49.8912 15.1584C50.5982 16.3367 51.5801 17.6851 52.8369 19.2038C53.7795 20.382 54.2508 21.5995 54.2508 22.8563C54.2508 23.5371 54.0937 24.2571 53.7795 25.0164C52.7059 27.6348 50.8469 28.9439 48.2024 28.9439Z" fill="#00A676"/>
<path fill-rule="evenodd" clip-rule="evenodd" d="M48.7304 2.58438C49.2544 2.37325 49.8503 2.62681 50.0614 3.15074C51.4866 6.68724 51.9665 9.54668 51.9189 12.1114C51.8715 14.6605 51.3018 16.8662 50.7137 19.0397C50.6807 19.1616 50.6476 19.2836 50.6144 19.4058C49.4771 23.5968 48.2789 28.012 50.1072 35.6139C50.2393 36.1631 49.9011 36.7154 49.3519 36.8474C48.8027 36.9795 48.2504 36.6414 48.1183 36.0922C46.1678 27.9821 47.4754 23.1632 48.6419 18.8642C48.6744 18.7442 48.7069 18.6246 48.7392 18.5054C49.3273 16.332 49.8315 14.3443 49.8736 12.0735C49.9155 9.81837 49.5005 7.23148 48.1641 3.91533C47.953 3.39141 48.2065 2.79552 48.7304 2.58438Z" fill="#00A676"/>
<path d="M15.072 14.12C14.9653 14.3333 14.624 14.92 14.048 15.88C14.5813 16.2 14.9547 16.4027 15.168 16.488C16.2987 16.9147 17.1413 17.5653 17.696 18.44C18.272 19.2933 18.56 20.2427 18.56 21.288C18.56 22.312 18.2933 23.3253 17.76 24.328C16.4373 26.7813 14.304 28.744 11.36 30.216C10.6347 30.5787 9.92 30.76 9.216 30.76C8.192 30.76 7.24267 30.3973 6.368 29.672C6.02667 29.3947 5.62133 29.0853 5.152 28.744C5.10933 28.872 5.056 29.0213 4.992 29.192C4.94933 29.384 4.896 29.5227 4.832 29.608C4.576 29.992 4.256 30.184 3.872 30.184C3.53067 30.184 3.22133 30.0453 2.944 29.768C2.176 29.064 1.792 28.264 1.792 27.368C1.792 26.6853 1.78133 26.088 1.76 25.576C1.73867 25.064 1.71733 24.6373 1.696 24.296C1.67467 23.8693 1.65333 23.336 1.632 22.696C1.61067 22.056 1.6 21.3093 1.6 20.456C1.6 18.8347 1.68533 17.384 1.856 16.104C2.09067 14.2267 2.53867 12.4667 3.2 10.824C3.712 9.58667 4.46933 8.616 5.472 7.912C6.496 7.208 7.70133 6.792 9.088 6.664C9.728 6.62133 10.2187 6.6 10.56 6.6C12.1387 6.6 13.4613 6.94133 14.528 7.624C15.0827 7.96533 15.5093 8.41333 15.808 8.968C16.128 9.52267 16.288 10.12 16.288 10.76C16.288 11.2933 16.1707 11.8267 15.936 12.36L15.616 13C15.4667 13.3413 15.2853 13.7147 15.072 14.12ZM12.544 11.464C12.6507 11.1867 12.7467 10.728 12.832 10.088L12.928 9.384C12.288 9.10667 11.68 8.968 11.104 8.968C10.6133 8.968 10.1547 9.04267 9.728 9.192C8.81067 9.49067 8.04267 9.94933 7.424 10.568C6.82667 11.1653 6.34667 11.8267 5.984 12.552C5.64267 13.2773 5.30133 14.1733 4.96 15.24C4.704 16.072 4.576 17 4.576 18.024C4.576 18.5787 4.61867 19.3893 4.704 20.456C4.74667 20.776 4.78933 21.2987 4.832 22.024C4.85333 22.6 4.97067 23.784 5.184 25.576L5.312 26.632C5.44 26.6747 5.65333 26.7173 5.952 26.76C6.35733 26.8027 6.66667 26.888 6.88 27.016C7.072 27.1227 7.264 27.304 7.456 27.56C7.648 27.7947 7.79733 27.976 7.904 28.104C9.184 27.848 10.272 27.3253 11.168 26.536C12.0853 25.7467 12.9813 24.7227 13.856 23.464C14.5173 22.44 14.9333 21.5227 15.104 20.712C15.168 20.392 15.2 20.104 15.2 19.848C15.2 19.272 15.04 18.8347 14.72 18.536C14.4213 18.2373 14.0053 18.088 13.472 18.088C13.152 18.088 12.8533 18.1307 12.576 18.216C11.616 18.4933 10.6347 19.1013 9.632 20.04C9.12 20.488 8.608 20.712 8.096 20.712C7.776 20.712 7.44533 20.616 7.104 20.424C6.69867 20.1893 6.35733 19.9333 6.08 19.656C5.80267 19.3787 5.568 19.016 5.376 18.568L6.112 18.056C6.88 17.5013 7.46667 17.1067 7.872 16.872C9.94133 15.7627 11.4987 13.96 12.544 11.464Z" fill="#87BCDE"/>
<path d="M36.072 14.12C35.9653 14.3333 35.624 14.92 35.048 15.88C35.5813 16.2 35.9547 16.4027 36.168 16.488C37.2987 16.9147 38.1413 17.5653 38.696 18.44C39.272 19.2933 39.56 20.2427 39.56 21.288C39.56 22.312 39.2933 23.3253 38.76 24.328C37.4373 26.7813 35.304 28.744 32.36 30.216C31.6347 30.5787 30.92 30.76 30.216 30.76C29.192 30.76 28.2427 30.3973 27.368 29.672C27.0267 29.3947 26.6213 29.0853 26.152 28.744C26.1093 28.872 26.056 29.0213 25.992 29.192C25.9493 29.384 25.896 29.5227 25.832 29.608C25.576 29.992 25.256 30.184 24.872 30.184C24.5307 30.184 24.2213 30.0453 23.944 29.768C23.176 29.064 22.792 28.264 22.792 27.368C22.792 26.6853 22.7813 26.088 22.76 25.576C22.7387 25.064 22.7173 24.6373 22.696 24.296C22.6747 23.8693 22.6533 23.336 22.632 22.696C22.6107 22.056 22.6 21.3093 22.6 20.456C22.6 18.8347 22.6853 17.384 22.856 16.104C23.0907 14.2267 23.5387 12.4667 24.2 10.824C24.712 9.58667 25.4693 8.616 26.472 7.912C27.496 7.208 28.7013 6.792 30.088 6.664C30.728 6.62133 31.2187 6.6 31.56 6.6C33.1387 6.6 34.4613 6.94133 35.528 7.624C36.0827 7.96533 36.5093 8.41333 36.808 8.968C37.128 9.52267 37.288 10.12 37.288 10.76C37.288 11.2933 37.1707 11.8267 36.936 12.36L36.616 13C36.4667 13.3413 36.2853 13.7147 36.072 14.12ZM33.544 11.464C33.6507 11.1867 33.7467 10.728 33.832 10.088L33.928 9.384C33.288 9.10667 32.68 8.968 32.104 8.968C31.6133 8.968 31.1547 9.04267 30.728 9.192C29.8107 9.49067 29.0427 9.94933 28.424 10.568C27.8267 11.1653 27.3467 11.8267 26.984 12.552C26.6427 13.2773 26.3013 14.1733 25.96 15.24C25.704 16.072 25.576 17 25.576 18.024C25.576 18.5787 25.6187 19.3893 25.704 20.456C25.7467 20.776 25.7893 21.2987 25.832 22.024C25.8533 22.6 25.9707 23.784 26.184 25.576L26.312 26.632C26.44 26.6747 26.6533 26.7173 26.952 26.76C27.3573 26.8027 27.6667 26.888 27.88 27.016C28.072 27.1227 28.264 27.304 28.456 27.56C28.648 27.7947 28.7973 27.976 28.904 28.104C30.184 27.848 31.272 27.3253 32.168 26.536C33.0853 25.7467 33.9813 24.7227 34.856 23.464C35.5173 22.44 35.9333 21.5227 36.104 20.712C36.168 20.392 36.2 20.104 36.2 19.848C36.2 19.272 36.04 18.8347 35.72 18.536C35.4213 18.2373 35.0053 18.088 34.472 18.088C34.152 18.088 33.8533 18.1307 33.576 18.216C32.616 18.4933 31.6347 19.1013 30.632 20.04C30.12 20.488 29.608 20.712 29.096 20.712C28.776 20.712 28.4453 20.616 28.104 20.424C27.6987 20.1893 27.3573 19.9333 27.08 19.656C26.8027 19.3787 26.568 19.016 26.376 18.568L27.112 18.056C27.88 17.5013 28.4667 17.1067 28.872 16.872C30.9413 15.7627 32.4987 13.96 33.544 11.464Z" fill="#87BCDE"/>
<path d="M40 42C40 41.6318 40.2985 41.3333 40.6667 41.3333H45.3333C45.7015 41.3333 46 41.6318 46 42C46 42.3682 45.7015 42.6666 45.3333 42.6666H40.6667C40.2985 42.6666 40 42.3682 40 42Z" fill="#DC9596"/>
<path d="M43 45C42.6318 45 42.3333 44.7015 42.3333 44.3333V39.6667C42.3333 39.2985 42.6318 39 43 39C43.3682 39 43.6666 39.2985 43.6666 39.6667V44.3333C43.6666 44.7015 43.3682 45 43 45Z" fill="#DC9596"/>
<path d="M11.9271 36.5143C13.2049 36.5143 14.1399 36.76 14.7323 37.2514C15.3363 37.7314 15.6383 38.48 15.6383 39.4971C15.6383 40.5029 15.3363 41.2457 14.7323 41.7257C14.1283 42.1943 13.199 42.4286 11.9446 42.4286H10.4461V44.8971H9V36.5143H11.9271ZM12.1014 41.16C12.868 41.16 13.4023 41.0171 13.7043 40.7314C14.0179 40.4457 14.1748 39.9943 14.1748 39.3771C14.1748 38.8057 13.9947 38.4 13.6346 38.16C13.2745 37.92 12.6938 37.8 11.8923 37.8H10.4461V41.16H12.1014Z" fill="#DC9596"/>
<path d="M18.5187 44.8971H17.1597V36H18.5187V44.8971Z" fill="#DC9596"/>
<path d="M25.0402 38.52H26.4166V44.8971H25.0402V43.7314C24.8195 44.12 24.5117 44.4286 24.1167 44.6571C23.7334 44.8857 23.3211 45 22.8797 45C22.1363 45 21.5439 44.7771 21.1025 44.3314C20.6611 43.8857 20.4404 43.2514 20.4404 42.4286V38.52H21.7994V42.0171C21.7994 43.1943 22.2931 43.7829 23.2804 43.7829C23.7799 43.7829 24.1981 43.6229 24.5349 43.3029C24.8718 42.9829 25.0402 42.5371 25.0402 41.9657V38.52Z" fill="#DC9596"/>
<path d="M30.613 45C29.5676 45 28.6267 44.68 27.7904 44.04L28.4525 42.9943C29.1959 43.5543 29.9277 43.8343 30.6478 43.8343C30.9498 43.8343 31.188 43.7657 31.3622 43.6286C31.548 43.48 31.641 43.2971 31.641 43.08C31.641 42.76 31.2112 42.4743 30.3516 42.2229C30.3284 42.2114 30.2994 42.2 30.2645 42.1886C30.2413 42.1771 30.2239 42.1714 30.2123 42.1714C28.8648 41.8171 28.1911 41.2171 28.1911 40.3714C28.1911 39.7771 28.4176 39.3029 28.8707 38.9486C29.3353 38.5943 29.9451 38.4171 30.7001 38.4171C31.4435 38.4171 32.1521 38.6343 32.8258 39.0686L32.3205 40.0629C31.7978 39.72 31.2228 39.5486 30.5956 39.5486C29.8638 39.5486 29.4979 39.7771 29.4979 40.2343C29.4979 40.4286 29.5676 40.5714 29.707 40.6629C29.858 40.7429 30.1019 40.8229 30.4388 40.9029C30.9498 41.04 31.3796 41.1771 31.7281 41.3143C31.9604 41.4171 32.1637 41.5257 32.3379 41.64C32.7793 41.9371 33 42.3886 33 42.9943C33 43.5886 32.7735 44.0743 32.3205 44.4514C31.8791 44.8171 31.3099 45 30.613 45Z" fill="#DC9596"/>
</svg>
