<svg width="34" height="38" viewBox="0 0 34 38" fill="none" xmlns="http://www.w3.org/2000/svg">
<path d="M0.607178 19C0.607178 17.8977 1.05494 16.8405 1.85197 16.0611C2.649 15.2816 3.73001 14.8438 4.85718 14.8438C5.98435 14.8438 7.06535 15.2816 7.86238 16.0611C8.65941 16.8405 9.10718 17.8977 9.10718 19C9.10718 20.1023 8.65941 21.1595 7.86238 21.9389C7.06535 22.7184 5.98435 23.1562 4.85718 23.1562C3.73001 23.1562 2.649 22.7184 1.85197 21.9389C1.05494 21.1595 0.607178 20.1023 0.607178 19ZM12.75 19C12.75 17.8977 13.1978 16.8405 13.9948 16.0611C14.7919 15.2816 15.8729 14.8438 17 14.8438C18.1272 14.8438 19.2082 15.2816 20.0052 16.0611C20.8023 16.8405 21.25 17.8977 21.25 19C21.25 20.1023 20.8023 21.1595 20.0052 21.9389C19.2082 22.7184 18.1272 23.1562 17 23.1562C15.8729 23.1562 14.7919 22.7184 13.9948 21.9389C13.1978 21.1595 12.75 20.1023 12.75 19ZM29.1429 14.8438C30.2701 14.8438 31.3511 15.2816 32.1481 16.0611C32.9451 16.8405 33.3929 17.8977 33.3929 19C33.3929 20.1023 32.9451 21.1595 32.1481 21.9389C31.3511 22.7184 30.2701 23.1562 29.1429 23.1562C28.0157 23.1562 26.9347 22.7184 26.1377 21.9389C25.3407 21.1595 24.8929 20.1023 24.8929 19C24.8929 17.8977 25.3407 16.8405 26.1377 16.0611C26.9347 15.2816 28.0157 14.8438 29.1429 14.8438Z" fill="#4A4A4A"/>
</svg>
