<svg width="376" height="243" viewBox="0 0 376 243" fill="none" xmlns="http://www.w3.org/2000/svg">
<path d="M317.637 190.73C303.144 190.73 293.913 184.519 289.944 172.096C291.325 172.096 293.136 172.182 295.379 172.355C297.795 172.355 299.779 172.528 301.332 172.873C303.748 173.218 305.473 173.39 306.508 173.39C314.272 173.39 320.743 169.939 325.919 163.038C329.542 158.034 331.354 152.944 331.354 147.768C331.354 144.317 330.491 140.953 328.766 137.675C324.97 130.946 320.311 123.527 314.79 115.417C311.167 110.069 307.888 104.979 304.955 100.148C301.505 94.6264 299.779 88.5013 299.779 81.7723C299.779 75.5609 301.505 70.1259 304.955 65.4674C308.579 60.6363 313.841 57.6169 320.743 56.4091L329.024 54.8563C337.996 53.1309 344.725 52.2682 349.211 52.2682C356.631 52.2682 363.187 53.9936 368.881 57.4443C370.089 58.307 371.296 59.8599 372.504 62.1029C373.884 64.1733 374.92 65.8125 375.61 67.0202C374.402 67.5378 372.677 68.4005 370.434 69.6083C368.363 70.6435 366.552 71.2474 364.999 71.42C362.583 71.765 358.96 71.9376 354.129 71.9376C349.47 71.9376 345.933 72.0238 343.518 72.1964C337.996 72.714 333.597 74.6119 330.318 77.8901C327.213 80.9958 325.66 84.7917 325.66 89.2777C325.66 92.7285 326.695 96.2655 328.766 99.8888C333.424 107.653 339.894 116.539 348.176 126.546C354.388 134.31 357.493 142.333 357.493 150.615C357.493 155.101 356.458 159.846 354.388 164.85C347.314 182.103 335.063 190.73 317.637 190.73Z" fill="#00A676"/>
<path fill-rule="evenodd" clip-rule="evenodd" d="M321.118 17.0303C324.57 15.639 328.497 17.3099 329.888 20.7624C339.28 44.0667 342.442 62.9094 342.129 79.8103C341.817 96.6078 338.062 111.143 334.187 125.465C333.97 126.268 333.751 127.072 333.533 127.878C326.038 155.494 318.142 184.589 330.19 234.683C331.061 238.302 328.832 241.941 325.213 242.812C321.594 243.682 317.955 241.454 317.084 237.835C304.231 184.392 312.847 152.637 320.534 124.308C320.749 123.518 320.963 122.73 321.175 121.944C325.051 107.622 328.373 94.5238 328.651 79.5601C328.927 64.6997 326.192 47.6531 317.386 25.8008C315.995 22.3483 317.666 18.4217 321.118 17.0303Z" fill="#00A676"/>
<path d="M99.3191 89.9461C98.6162 91.3519 96.367 95.2178 92.5713 101.544C96.0858 103.653 98.546 104.988 99.9517 105.55C107.402 108.362 112.955 112.65 116.61 118.413C120.406 124.037 122.304 130.292 122.304 137.181C122.304 143.928 120.547 150.606 117.032 157.213C108.316 173.38 94.2583 186.313 74.8584 196.013C70.0787 198.403 65.3693 199.598 60.7302 199.598C53.9824 199.598 47.7266 197.208 41.9629 192.428C39.7136 190.601 37.0426 188.562 33.9499 186.313C33.6687 187.157 33.3172 188.141 32.8955 189.265C32.6144 190.53 32.2629 191.444 31.8412 192.007C30.1542 194.537 28.0455 195.802 25.5151 195.802C23.2658 195.802 21.2274 194.888 19.3999 193.061C14.3391 188.422 11.8086 183.15 11.8086 177.246C11.8086 172.747 11.7384 168.811 11.5978 165.437C11.4572 162.063 11.3166 159.252 11.176 157.002C11.0355 154.191 10.8949 150.676 10.7543 146.459C10.6137 142.241 10.5434 137.321 10.5434 131.698C10.5434 121.014 11.1057 111.455 12.2304 103.02C13.7768 90.649 16.7289 79.0512 21.0869 68.2266C24.4608 60.073 29.4513 53.6767 36.0585 49.0375C42.8063 44.3984 50.7491 41.6571 59.8867 40.8137C64.1041 40.5325 67.3374 40.3919 69.5867 40.3919C79.9895 40.3919 88.7054 42.6412 95.7344 47.1397C99.3894 49.389 102.201 52.3412 104.169 55.9962C106.278 59.6513 107.332 63.5875 107.332 67.8049C107.332 71.3193 106.559 74.8338 105.013 78.3483L102.904 82.5657C101.92 84.8149 100.725 87.2751 99.3191 89.9461ZM82.6605 72.444C83.3634 70.6164 83.996 67.594 84.5583 63.3766L85.1909 58.7375C80.9736 56.91 76.9671 55.9962 73.1714 55.9962C69.9381 55.9962 66.9157 56.4882 64.1041 57.4723C58.0592 59.4404 52.9983 62.4629 48.9215 66.5396C44.9853 70.4759 41.8223 74.8338 39.4324 79.6135C37.1832 84.3932 34.9339 90.2975 32.6846 97.3265C30.9977 102.809 30.1542 108.924 30.1542 115.672C30.1542 119.327 30.4354 124.669 30.9977 131.698C31.2789 133.807 31.56 137.251 31.8412 142.031C31.9817 145.826 32.7549 153.628 34.1607 165.437L35.0042 172.396C35.8477 172.677 37.2535 172.958 39.2216 173.239C41.8926 173.52 43.931 174.083 45.3368 174.926C46.602 175.629 47.8672 176.824 49.1324 178.511C50.3976 180.057 51.3817 181.252 52.0846 182.096C60.5193 180.409 67.6888 176.965 73.5932 171.763C79.6381 166.562 85.5424 159.814 91.3061 151.52C95.6641 144.772 98.4054 138.727 99.53 133.385C99.9517 131.276 100.163 129.379 100.163 127.692C100.163 123.896 99.1083 121.014 96.9996 119.046C95.0315 117.078 92.2902 116.094 88.7757 116.094C86.667 116.094 84.6989 116.375 82.8714 116.937C76.5453 118.765 70.0787 122.771 63.4715 128.957C60.0976 131.909 56.7237 133.385 53.3498 133.385C51.2411 133.385 49.0621 132.752 46.8128 131.487C44.1418 129.941 41.8926 128.254 40.065 126.426C38.2375 124.599 36.6911 122.209 35.4259 119.257L40.2759 115.883C45.3368 112.228 49.2027 109.627 51.8737 108.081C65.5099 100.771 75.7721 88.8917 82.6605 72.444Z" fill="#87BCDE"/>
<path d="M237.702 89.9461C236.999 91.3519 234.75 95.2178 230.954 101.544C234.468 103.653 236.929 104.988 238.334 105.55C245.785 108.362 251.338 112.65 254.993 118.413C258.789 124.037 260.686 130.292 260.686 137.181C260.686 143.928 258.929 150.606 255.415 157.213C246.699 173.38 232.641 186.313 213.241 196.013C208.461 198.403 203.752 199.598 199.113 199.598C192.365 199.598 186.109 197.208 180.345 192.428C178.096 190.601 175.425 188.562 172.332 186.313C172.051 187.157 171.7 188.141 171.278 189.265C170.997 190.53 170.645 191.444 170.224 192.007C168.537 194.537 166.428 195.802 163.898 195.802C161.648 195.802 159.61 194.888 157.782 193.061C152.722 188.422 150.191 183.15 150.191 177.246C150.191 172.747 150.121 168.811 149.98 165.437C149.84 162.063 149.699 159.252 149.559 157.002C149.418 154.191 149.277 150.676 149.137 146.459C148.996 142.241 148.926 137.321 148.926 131.698C148.926 121.014 149.488 111.455 150.613 103.02C152.159 90.649 155.111 79.0512 159.469 68.2266C162.843 60.073 167.834 53.6767 174.441 49.0375C181.189 44.3984 189.132 41.6571 198.269 40.8137C202.487 40.5325 205.72 40.3919 207.969 40.3919C218.372 40.3919 227.088 42.6412 234.117 47.1397C237.772 49.389 240.584 52.3412 242.552 55.9962C244.66 59.6513 245.715 63.5875 245.715 67.8049C245.715 71.3193 244.942 74.8338 243.395 78.3483L241.286 82.5657C240.302 84.8149 239.108 87.2751 237.702 89.9461ZM221.043 72.444C221.746 70.6164 222.379 67.594 222.941 63.3766L223.574 58.7375C219.356 56.91 215.35 55.9962 211.554 55.9962C208.321 55.9962 205.298 56.4882 202.487 57.4723C196.442 59.4404 191.381 62.4629 187.304 66.5396C183.368 70.4759 180.205 74.8338 177.815 79.6135C175.566 84.3932 173.316 90.2975 171.067 97.3265C169.38 102.809 168.537 108.924 168.537 115.672C168.537 119.327 168.818 124.669 169.38 131.698C169.661 133.807 169.943 137.251 170.224 142.031C170.364 145.826 171.138 153.628 172.543 165.437L173.387 172.396C174.23 172.677 175.636 172.958 177.604 173.239C180.275 173.52 182.314 174.083 183.719 174.926C184.985 175.629 186.25 176.824 187.515 178.511C188.78 180.057 189.764 181.252 190.467 182.096C198.902 180.409 206.071 176.965 211.976 171.763C218.021 166.562 223.925 159.814 229.689 151.52C234.047 144.772 236.788 138.727 237.913 133.385C238.334 131.276 238.545 129.379 238.545 127.692C238.545 123.896 237.491 121.014 235.382 119.046C233.414 117.078 230.673 116.094 227.158 116.094C225.05 116.094 223.081 116.375 221.254 116.937C214.928 118.765 208.461 122.771 201.854 128.957C198.48 131.909 195.106 133.385 191.732 133.385C189.624 133.385 187.445 132.752 185.195 131.487C182.524 129.941 180.275 128.254 178.448 126.426C176.62 124.599 175.074 122.209 173.809 119.257L178.658 115.883C183.719 112.228 187.585 109.627 190.256 108.081C203.892 100.771 214.155 88.8917 221.043 72.444Z" fill="#87BCDE"/>
</svg>
