<svg width="45" height="45" viewBox="0 0 45 45" fill="none" xmlns="http://www.w3.org/2000/svg">
<circle cx="22.5" cy="22.5" r="21" transform="matrix(-1 0 0 1 45 0)" stroke="#DC9596" stroke-width="3"/>
<path d="M20.1975 26.4437C20.1956 26.2867 20.1626 26.09 20.0985 25.8534C20.0495 25.5975 20.0047 25.376 19.9641 25.1888L18.5219 25.6026L16.5248 26.1896C16.086 26.3136 15.642 26.3247 15.1929 26.2229C14.7781 26.1169 14.3968 25.9282 14.0489 25.6567C13.6044 25.3099 13.2815 24.8869 13.0802 24.3878C12.894 23.8694 12.8798 23.3297 13.0377 22.7689C13.0895 22.6227 13.1531 22.5014 13.2285 22.4047C13.4849 22.0762 13.798 21.8542 14.168 21.7387C15.9919 21.2342 17.6663 20.8617 19.1909 20.6212C19.4662 20.5872 19.7414 20.5532 20.0167 20.5193C20.3263 20.4811 20.5038 20.433 20.549 20.375C20.5792 20.3364 20.5773 20.1794 20.5433 19.9042C20.5438 19.6247 20.5668 19.3162 20.6125 18.9787C20.6516 18.7294 20.6588 18.222 20.6343 17.4566L20.6751 16.0893C20.6949 15.8249 20.7717 15.5273 20.9055 15.1964C21.0393 14.8655 21.1322 14.627 21.184 14.4809C21.3494 14.5478 21.6127 14.6289 21.9737 14.724C22.7302 14.9101 23.1942 15.1323 23.3658 15.3906C23.741 16.0254 24.0239 16.6192 24.2143 17.1721C24.4392 17.7206 24.476 18.2313 24.3248 18.7041C24.2621 18.9039 24.1865 19.1403 24.0979 19.4132C24.0244 19.6667 23.9865 19.8548 23.9842 19.9773C23.9818 20.0999 24.0096 20.1838 24.0676 20.229C24.1449 20.2893 24.3384 20.3004 24.648 20.2622C24.977 20.2391 25.3899 20.1881 25.8866 20.1094C26.2651 20.0627 26.6671 20.0655 27.0927 20.1177C27.5334 20.1507 27.959 20.203 28.3695 20.2746C28.7801 20.3462 29.1206 20.4875 29.3912 20.6986C29.7004 20.9399 29.9224 21.2531 30.0572 21.6381C30.192 22.0232 30.2762 22.4931 30.3097 23.0478C30.2881 23.1553 30.2471 23.2477 30.1868 23.325C30.0963 23.4409 29.9693 23.5439 29.8057 23.6339C29.6615 23.7391 29.5303 23.8077 29.412 23.8397C28.4915 24.0231 27.4303 24.1279 26.2285 24.1539C26.106 24.1516 25.9662 24.1514 25.8093 24.1533C25.6716 24.1702 25.5244 24.1797 25.3674 24.1816C24.8966 24.1873 24.5063 24.2092 24.1967 24.2474C23.9021 24.2663 23.7096 24.3337 23.6191 24.4497C23.5135 24.585 23.47 24.9396 23.4884 25.5137L23.4603 26.9842C23.3336 28.2224 23.1709 29.1681 22.972 29.8213C22.9244 30.0019 22.8177 30.1984 22.6518 30.411C22.5312 30.5656 22.4084 30.703 22.2835 30.8232C22.1587 30.9434 22.0359 31.0808 21.9152 31.2354C21.6749 30.9856 21.4677 30.7929 21.2938 30.6571C21.2358 30.6119 21.0866 30.4644 20.8462 30.2146C20.6058 29.9649 20.4342 29.7066 20.3315 29.4398C20.2159 29.0699 20.1575 28.6667 20.156 28.2302C20.189 27.7895 20.2012 27.5348 20.1927 27.466L20.1975 26.4437Z" fill="#DC9596"/>
</svg>
