<svg width="587" height="104" viewBox="0 0 587 104" fill="none" xmlns="http://www.w3.org/2000/svg">
<path d="M564.105 29.331C564.101 28.986 564.028 28.5534 563.887 28.0333C563.779 27.4707 563.681 26.9837 563.592 26.5724L560.421 27.4819L556.031 28.7723C555.066 29.0449 554.09 29.0693 553.103 28.8456C552.191 28.6126 551.353 28.1977 550.588 27.601C549.611 26.8385 548.901 25.9087 548.459 24.8115C548.049 23.6718 548.018 22.4855 548.365 21.2525C548.479 20.9313 548.619 20.6645 548.785 20.452C549.348 19.7298 550.037 19.2418 550.85 18.9878C554.86 17.8788 558.54 17.0599 561.892 16.5312C562.497 16.4565 563.102 16.3819 563.707 16.3072C564.388 16.2232 564.778 16.1175 564.878 15.99C564.944 15.9051 564.94 15.5601 564.865 14.955C564.866 14.3406 564.917 13.6624 565.017 12.9206C565.103 12.3725 565.119 11.2571 565.065 9.57447L565.155 6.56873C565.198 5.98747 565.367 5.33316 565.661 4.60578C565.955 3.87841 566.159 3.35412 566.273 3.03292C566.637 3.18001 567.216 3.35816 568.009 3.56738C569.672 3.97647 570.693 4.46489 571.07 5.03264C571.895 6.42819 572.516 7.73362 572.935 8.94893C573.429 10.1549 573.51 11.2775 573.178 12.3168C573.04 12.7561 572.874 13.2757 572.679 13.8756C572.518 14.4331 572.434 14.8465 572.429 15.1159C572.424 15.3852 572.485 15.5697 572.613 15.6691C572.782 15.8017 573.208 15.826 573.888 15.742C574.612 15.6912 575.519 15.5792 576.611 15.4061C577.443 15.3034 578.327 15.3095 579.263 15.4245C580.231 15.4969 581.167 15.6118 582.07 15.7692C582.972 15.9266 583.721 16.2374 584.315 16.7015C584.995 17.2319 585.483 17.9203 585.78 18.7668C586.076 19.6133 586.261 20.6462 586.335 21.8657C586.287 22.102 586.197 22.3051 586.064 22.475C585.865 22.7299 585.586 22.9563 585.227 23.1542C584.91 23.3853 584.621 23.5361 584.361 23.6066C582.338 24.0098 580.005 24.2401 577.363 24.2973C577.093 24.2922 576.786 24.2917 576.441 24.2959C576.139 24.3332 575.815 24.3539 575.47 24.3581C574.435 24.3706 573.577 24.4189 572.896 24.5029C572.249 24.5444 571.825 24.6926 571.627 24.9475C571.394 25.2449 571.299 26.0246 571.339 27.2865L571.277 30.5192C570.999 33.2411 570.641 35.32 570.204 36.7561C570.099 37.153 569.865 37.585 569.5 38.0524C569.235 38.3922 568.965 38.6943 568.691 38.9585C568.416 39.2227 568.146 39.5248 567.881 39.8647C567.352 39.3156 566.897 38.8919 566.515 38.5935C566.387 38.494 566.059 38.1698 565.531 37.6207C565.002 37.0716 564.625 36.5039 564.399 35.9174C564.145 35.1041 564.017 34.2178 564.014 33.2583C564.086 32.2896 564.113 31.7296 564.094 31.5783L564.105 29.331Z" fill="#DC9596"/>
<path d="M40.416 22.944C40.096 23.584 39.072 25.344 37.344 28.224C38.944 29.184 40.064 29.792 40.704 30.048C44.096 31.328 46.624 33.28 48.288 35.904C50.016 38.464 50.88 41.312 50.88 44.448C50.88 47.52 50.08 50.56 48.48 53.568C44.512 60.928 38.112 66.816 29.28 71.232C27.104 72.32 24.96 72.864 22.848 72.864C19.776 72.864 16.928 71.776 14.304 69.6C13.28 68.768 12.064 67.84 10.656 66.816C10.528 67.2 10.368 67.648 10.176 68.16C10.048 68.736 9.888 69.152 9.696 69.408C8.928 70.56 7.968 71.136 6.816 71.136C5.792 71.136 4.864 70.72 4.032 69.888C1.728 67.776 0.576 65.376 0.576 62.688C0.576 60.64 0.544 58.848 0.48 57.312C0.416 55.776 0.352 54.496 0.288 53.472C0.224 52.192 0.16 50.592 0.0960002 48.672C0.0320001 46.752 0 44.512 0 41.952C0 37.088 0.256 32.736 0.768 28.896C1.472 23.264 2.816 17.984 4.8 13.056C6.336 9.344 8.608 6.432 11.616 4.32C14.688 2.208 18.304 0.960003 22.464 0.576004C24.384 0.448002 25.856 0.384001 26.88 0.384001C31.616 0.384001 35.584 1.408 38.784 3.456C40.448 4.48 41.728 5.824 42.624 7.488C43.584 9.152 44.064 10.944 44.064 12.864C44.064 14.464 43.712 16.064 43.008 17.664L42.048 19.584C41.6 20.608 41.056 21.728 40.416 22.944ZM32.832 14.976C33.152 14.144 33.44 12.768 33.696 10.848L33.984 8.736C32.064 7.904 30.24 7.488 28.512 7.488C27.04 7.488 25.664 7.712 24.384 8.16C21.632 9.056 19.328 10.432 17.472 12.288C15.68 14.08 14.24 16.064 13.152 18.24C12.128 20.416 11.104 23.104 10.08 26.304C9.312 28.8 8.928 31.584 8.928 34.656C8.928 36.32 9.056 38.752 9.312 41.952C9.44 42.912 9.568 44.48 9.696 46.656C9.76 48.384 10.112 51.936 10.752 57.312L11.136 60.48C11.52 60.608 12.16 60.736 13.056 60.864C14.272 60.992 15.2 61.248 15.84 61.632C16.416 61.952 16.992 62.496 17.568 63.264C18.144 63.968 18.592 64.512 18.912 64.896C22.752 64.128 26.016 62.56 28.704 60.192C31.456 57.824 34.144 54.752 36.768 50.976C38.752 47.904 40 45.152 40.512 42.72C40.704 41.76 40.8 40.896 40.8 40.128C40.8 38.4 40.32 37.088 39.36 36.192C38.464 35.296 37.216 34.848 35.616 34.848C34.656 34.848 33.76 34.976 32.928 35.232C30.048 36.064 27.104 37.888 24.096 40.704C22.56 42.048 21.024 42.72 19.488 42.72C18.528 42.72 17.536 42.432 16.512 41.856C15.296 41.152 14.272 40.384 13.44 39.552C12.608 38.72 11.904 37.632 11.328 36.288L13.536 34.752C15.84 33.088 17.6 31.904 18.816 31.2C25.024 27.872 29.696 22.464 32.832 14.976Z" fill="#00A676"/>
<path d="M40.416 22.944C40.096 23.584 39.072 25.344 37.344 28.224C38.944 29.184 40.064 29.792 40.704 30.048C44.096 31.328 46.624 33.28 48.288 35.904C50.016 38.464 50.88 41.312 50.88 44.448C50.88 47.52 50.08 50.56 48.48 53.568C44.512 60.928 38.112 66.816 29.28 71.232C27.104 72.32 24.96 72.864 22.848 72.864C19.776 72.864 16.928 71.776 14.304 69.6C13.28 68.768 12.064 67.84 10.656 66.816C10.528 67.2 10.368 67.648 10.176 68.16C10.048 68.736 9.888 69.152 9.696 69.408C8.928 70.56 7.968 71.136 6.816 71.136C5.792 71.136 4.864 70.72 4.032 69.888C1.728 67.776 0.576 65.376 0.576 62.688C0.576 60.64 0.544 58.848 0.48 57.312C0.416 55.776 0.352 54.496 0.288 53.472C0.224 52.192 0.16 50.592 0.0960002 48.672C0.0320001 46.752 0 44.512 0 41.952C0 37.088 0.256 32.736 0.768 28.896C1.472 23.264 2.816 17.984 4.8 13.056C6.336 9.344 8.608 6.432 11.616 4.32C14.688 2.208 18.304 0.960003 22.464 0.576004C24.384 0.448002 25.856 0.384001 26.88 0.384001C31.616 0.384001 35.584 1.408 38.784 3.456C40.448 4.48 41.728 5.824 42.624 7.488C43.584 9.152 44.064 10.944 44.064 12.864C44.064 14.464 43.712 16.064 43.008 17.664L42.048 19.584C41.6 20.608 41.056 21.728 40.416 22.944ZM32.832 14.976C33.152 14.144 33.44 12.768 33.696 10.848L33.984 8.736C32.064 7.904 30.24 7.488 28.512 7.488C27.04 7.488 25.664 7.712 24.384 8.16C21.632 9.056 19.328 10.432 17.472 12.288C15.68 14.08 14.24 16.064 13.152 18.24C12.128 20.416 11.104 23.104 10.08 26.304C9.312 28.8 8.928 31.584 8.928 34.656C8.928 36.32 9.056 38.752 9.312 41.952C9.44 42.912 9.568 44.48 9.696 46.656C9.76 48.384 10.112 51.936 10.752 57.312L11.136 60.48C11.52 60.608 12.16 60.736 13.056 60.864C14.272 60.992 15.2 61.248 15.84 61.632C16.416 61.952 16.992 62.496 17.568 63.264C18.144 63.968 18.592 64.512 18.912 64.896C22.752 64.128 26.016 62.56 28.704 60.192C31.456 57.824 34.144 54.752 36.768 50.976C38.752 47.904 40 45.152 40.512 42.72C40.704 41.76 40.8 40.896 40.8 40.128C40.8 38.4 40.32 37.088 39.36 36.192C38.464 35.296 37.216 34.848 35.616 34.848C34.656 34.848 33.76 34.976 32.928 35.232C30.048 36.064 27.104 37.888 24.096 40.704C22.56 42.048 21.024 42.72 19.488 42.72C18.528 42.72 17.536 42.432 16.512 41.856C15.296 41.152 14.272 40.384 13.44 39.552C12.608 38.72 11.904 37.632 11.328 36.288L13.536 34.752C15.84 33.088 17.6 31.904 18.816 31.2C25.024 27.872 29.696 22.464 32.832 14.976Z" fill="#87BCDE"/>
<path d="M68.7247 27.264C70.3247 27.712 71.4447 28.256 72.0847 28.896C72.7887 29.536 73.1407 30.4 73.1407 31.488C73.1407 32 73.0447 32.672 72.8527 33.504C72.1487 36.384 71.7647 39.264 71.7007 42.144C71.6367 45.408 72.1488 48.416 73.2367 51.168C73.6208 52.128 73.9727 52.832 74.2927 53.28C74.6768 53.664 75.1247 53.856 75.6367 53.856C76.2767 53.856 77.1087 53.28 78.1328 52.128C80.5008 49.312 82.2607 46.496 83.4128 43.68C84.5648 40.864 85.2688 37.952 85.5247 34.944C85.7168 32.96 86.0368 31.712 86.4847 31.2C86.7408 30.944 87.1568 30.784 87.7327 30.72C88.3087 30.656 89.1407 30.624 90.2287 30.624C91.9567 30.752 93.1407 30.912 93.7807 31.104C94.4847 31.296 94.9648 31.616 95.2207 32.064C95.4767 32.512 95.6048 33.248 95.6048 34.272L95.5088 38.784C95.5088 39.744 95.4767 41.152 95.4128 43.008C95.2207 48.768 95.0607 53.056 94.9327 55.872C94.8687 58.112 94.1967 60.928 92.9167 64.32C92.7887 64.512 92.4368 64.8 91.8607 65.184C91.2848 65.504 90.7728 65.696 90.3248 65.76C90.1968 65.76 89.9087 65.568 89.4607 65.184C89.0767 64.736 88.7887 64.352 88.5967 64.032C88.1488 63.008 87.6367 61.632 87.0607 59.904L86.2927 58.08L86.1007 57.504L85.8127 57.792L84.2767 58.752C83.5088 59.392 82.6767 59.904 81.7807 60.288C80.3087 61.184 78.5488 61.632 76.5007 61.632C73.9408 61.632 71.5088 60.928 69.2048 59.52C66.9007 58.048 65.0768 56.064 63.7328 53.568C61.5568 49.728 60.4688 45.28 60.4688 40.224C60.4688 37.664 60.8208 34.432 61.5248 30.528C61.6528 29.568 62.2607 28.736 63.3488 28.032C64.3088 27.328 65.4287 26.976 66.7087 26.976C67.3487 26.976 68.0207 27.072 68.7247 27.264Z" fill="#00A676"/>
<path d="M68.7247 27.264C70.3247 27.712 71.4447 28.256 72.0847 28.896C72.7887 29.536 73.1407 30.4 73.1407 31.488C73.1407 32 73.0447 32.672 72.8527 33.504C72.1487 36.384 71.7647 39.264 71.7007 42.144C71.6367 45.408 72.1488 48.416 73.2367 51.168C73.6208 52.128 73.9727 52.832 74.2927 53.28C74.6768 53.664 75.1247 53.856 75.6367 53.856C76.2767 53.856 77.1087 53.28 78.1328 52.128C80.5008 49.312 82.2607 46.496 83.4128 43.68C84.5648 40.864 85.2688 37.952 85.5247 34.944C85.7168 32.96 86.0368 31.712 86.4847 31.2C86.7408 30.944 87.1568 30.784 87.7327 30.72C88.3087 30.656 89.1407 30.624 90.2287 30.624C91.9567 30.752 93.1407 30.912 93.7807 31.104C94.4847 31.296 94.9648 31.616 95.2207 32.064C95.4767 32.512 95.6048 33.248 95.6048 34.272L95.5088 38.784C95.5088 39.744 95.4767 41.152 95.4128 43.008C95.2207 48.768 95.0607 53.056 94.9327 55.872C94.8687 58.112 94.1967 60.928 92.9167 64.32C92.7887 64.512 92.4368 64.8 91.8607 65.184C91.2848 65.504 90.7728 65.696 90.3248 65.76C90.1968 65.76 89.9087 65.568 89.4607 65.184C89.0767 64.736 88.7887 64.352 88.5967 64.032C88.1488 63.008 87.6367 61.632 87.0607 59.904L86.2927 58.08L86.1007 57.504L85.8127 57.792L84.2767 58.752C83.5088 59.392 82.6767 59.904 81.7807 60.288C80.3087 61.184 78.5488 61.632 76.5007 61.632C73.9408 61.632 71.5088 60.928 69.2048 59.52C66.9007 58.048 65.0768 56.064 63.7328 53.568C61.5568 49.728 60.4688 45.28 60.4688 40.224C60.4688 37.664 60.8208 34.432 61.5248 30.528C61.6528 29.568 62.2607 28.736 63.3488 28.032C64.3088 27.328 65.4287 26.976 66.7087 26.976C67.3487 26.976 68.0207 27.072 68.7247 27.264Z" fill="#87BCDE"/>
<path d="M148.271 59.904C147.311 60.096 146.383 60.192 145.487 60.192C143.375 60.192 141.391 59.648 139.535 58.56C137.679 57.472 135.759 55.872 133.775 53.76L132.815 56.256C131.919 58.816 131.471 60.064 131.471 60C130.767 62.432 129.359 64.384 127.247 65.856C125.135 67.264 122.799 67.968 120.239 67.968C118.447 67.968 116.719 67.616 115.055 66.912C113.391 66.144 111.919 65.056 110.639 63.648C107.567 60.192 106.031 56.512 106.031 52.608C106.031 48.32 107.855 43.872 111.503 39.264C113.103 37.28 114.927 35.936 116.975 35.232C119.087 34.528 121.551 34.176 124.367 34.176C125.711 34.176 126.671 33.888 127.247 33.312C127.823 32.736 128.047 31.712 127.919 30.24C127.279 23.84 126.959 17.984 126.959 12.672C126.959 11.2 127.215 9.12 127.727 6.432C127.983 5.152 128.591 4.128 129.551 3.36C130.511 2.528 131.663 2.112 133.007 2.112C133.455 2.112 133.775 2.144 133.967 2.208C137.039 2.784 138.575 4.64 138.575 7.776L138.767 13.824C139.023 25.856 139.407 34.848 139.919 40.8C140.047 42.528 140.431 44.192 141.071 45.792C141.775 47.392 142.799 49.568 144.143 52.32C144.463 52.96 145.359 53.6 146.831 54.24C147.023 54.368 147.343 54.528 147.791 54.72C148.303 54.912 148.687 55.136 148.943 55.392C149.519 55.776 150.063 56.32 150.575 57.024C151.087 57.664 151.439 58.112 151.631 58.368C151.183 58.56 150.607 58.848 149.903 59.232C149.263 59.552 148.719 59.776 148.271 59.904ZM121.871 41.088C120.271 42.112 118.959 43.744 117.935 45.984C116.911 48.16 116.399 50.432 116.399 52.8C116.399 56.192 117.519 58.88 119.759 60.864C121.807 57.408 123.375 54.24 124.463 51.36C125.551 48.416 126.095 45.408 126.095 42.336C126.095 40.992 125.455 40.32 124.175 40.32C123.471 40.32 122.703 40.576 121.871 41.088Z" fill="#00A676"/>
<path d="M148.271 59.904C147.311 60.096 146.383 60.192 145.487 60.192C143.375 60.192 141.391 59.648 139.535 58.56C137.679 57.472 135.759 55.872 133.775 53.76L132.815 56.256C131.919 58.816 131.471 60.064 131.471 60C130.767 62.432 129.359 64.384 127.247 65.856C125.135 67.264 122.799 67.968 120.239 67.968C118.447 67.968 116.719 67.616 115.055 66.912C113.391 66.144 111.919 65.056 110.639 63.648C107.567 60.192 106.031 56.512 106.031 52.608C106.031 48.32 107.855 43.872 111.503 39.264C113.103 37.28 114.927 35.936 116.975 35.232C119.087 34.528 121.551 34.176 124.367 34.176C125.711 34.176 126.671 33.888 127.247 33.312C127.823 32.736 128.047 31.712 127.919 30.24C127.279 23.84 126.959 17.984 126.959 12.672C126.959 11.2 127.215 9.12 127.727 6.432C127.983 5.152 128.591 4.128 129.551 3.36C130.511 2.528 131.663 2.112 133.007 2.112C133.455 2.112 133.775 2.144 133.967 2.208C137.039 2.784 138.575 4.64 138.575 7.776L138.767 13.824C139.023 25.856 139.407 34.848 139.919 40.8C140.047 42.528 140.431 44.192 141.071 45.792C141.775 47.392 142.799 49.568 144.143 52.32C144.463 52.96 145.359 53.6 146.831 54.24C147.023 54.368 147.343 54.528 147.791 54.72C148.303 54.912 148.687 55.136 148.943 55.392C149.519 55.776 150.063 56.32 150.575 57.024C151.087 57.664 151.439 58.112 151.631 58.368C151.183 58.56 150.607 58.848 149.903 59.232C149.263 59.552 148.719 59.776 148.271 59.904ZM121.871 41.088C120.271 42.112 118.959 43.744 117.935 45.984C116.911 48.16 116.399 50.432 116.399 52.8C116.399 56.192 117.519 58.88 119.759 60.864C121.807 57.408 123.375 54.24 124.463 51.36C125.551 48.416 126.095 45.408 126.095 42.336C126.095 40.992 125.455 40.32 124.175 40.32C123.471 40.32 122.703 40.576 121.871 41.088Z" fill="#87BCDE"/>
<path d="M192.546 43.392C192.354 48 192.034 51.488 191.586 53.856C191.138 56.224 190.242 58.496 188.898 60.672C187.618 62.784 185.506 65.248 182.562 68.064L185.922 69.888C187.97 71.04 189.474 71.84 190.434 72.288C193.314 73.632 195.49 75.328 196.962 77.376C198.434 79.488 199.17 81.792 199.17 84.288C199.17 87.36 198.146 90.4 196.098 93.408C193.922 96.608 191.202 98.976 187.938 100.512C184.674 102.112 181.186 102.944 177.474 103.008C174.722 103.072 171.906 102.624 169.026 101.664C167.682 101.216 166.338 100.224 164.994 98.688C163.65 97.216 162.562 95.552 161.73 93.696C160.962 91.84 160.61 90.208 160.674 88.8C160.738 88.48 160.866 88.128 161.058 87.744C161.25 87.424 161.474 87.232 161.73 87.168C161.794 87.104 161.922 87.072 162.114 87.072C162.306 87.072 162.562 87.136 162.882 87.264C163.266 87.456 163.522 87.584 163.65 87.648C163.97 87.776 164.194 88.064 164.322 88.512C165.218 90.496 166.21 92.064 167.298 93.216C168.386 94.368 169.826 94.88 171.618 94.752C178.21 94.304 182.722 92.48 185.154 89.28C185.986 88.256 186.658 87.072 187.17 85.728C187.746 84.448 188.034 83.232 188.034 82.08C188.034 80.416 187.618 79.2 186.786 78.432C186.018 77.664 184.802 77.12 183.138 76.8C181.346 76.48 179.618 76.032 177.954 75.456C176.354 74.88 174.402 74.016 172.098 72.864C170.946 72.288 170.146 71.776 169.698 71.328C169.25 70.88 169.026 70.336 169.026 69.696C169.026 69.056 169.41 67.424 170.178 64.8C170.306 64.416 169.698 63.776 168.354 62.88C167.074 61.984 165.954 61.248 164.994 60.672C161.538 58.624 159.81 55.296 159.81 50.688C159.81 49.408 159.906 48.192 160.098 47.04C161.25 40 164.674 35.008 170.37 32.064C171.714 31.36 173.122 31.008 174.594 31.008C175.682 31.008 176.802 31.168 177.954 31.488C179.106 31.808 179.778 32 179.97 32.064L181.986 32.64C182.946 32.896 183.874 33.024 184.77 33.024C185.986 33.024 187.074 32.8 188.034 32.352C189.058 31.904 190.082 31.2 191.106 30.24C192.578 29.024 194.146 28.416 195.81 28.416C197.026 28.416 198.114 28.768 199.074 29.472C200.034 30.112 200.738 31.072 201.186 32.352C201.314 32.864 201.378 33.28 201.378 33.6C201.378 34.176 201.282 34.624 201.09 34.944C200.898 35.2 200.354 36.032 199.458 37.44C199.01 38.272 198.594 38.976 198.21 39.552C197.826 40.128 197.218 40.768 196.386 41.472C195.81 41.792 195.202 42.048 194.562 42.24C193.922 42.368 193.41 42.496 193.026 42.624C192.706 42.752 192.546 43.008 192.546 43.392ZM172.386 41.952C170.402 44.256 169.41 46.592 169.41 48.96C169.41 50.624 169.922 52.224 170.946 53.76C172.034 55.232 173.666 56.512 175.842 57.6C178.274 56.64 180.162 54.976 181.506 52.608C182.85 50.24 183.522 47.648 183.522 44.832C183.522 43.104 183.266 41.536 182.754 40.128C182.242 38.72 181.218 37.632 179.682 36.864C176.738 38.016 174.306 39.712 172.386 41.952Z" fill="#00A676"/>
<path d="M192.546 43.392C192.354 48 192.034 51.488 191.586 53.856C191.138 56.224 190.242 58.496 188.898 60.672C187.618 62.784 185.506 65.248 182.562 68.064L185.922 69.888C187.97 71.04 189.474 71.84 190.434 72.288C193.314 73.632 195.49 75.328 196.962 77.376C198.434 79.488 199.17 81.792 199.17 84.288C199.17 87.36 198.146 90.4 196.098 93.408C193.922 96.608 191.202 98.976 187.938 100.512C184.674 102.112 181.186 102.944 177.474 103.008C174.722 103.072 171.906 102.624 169.026 101.664C167.682 101.216 166.338 100.224 164.994 98.688C163.65 97.216 162.562 95.552 161.73 93.696C160.962 91.84 160.61 90.208 160.674 88.8C160.738 88.48 160.866 88.128 161.058 87.744C161.25 87.424 161.474 87.232 161.73 87.168C161.794 87.104 161.922 87.072 162.114 87.072C162.306 87.072 162.562 87.136 162.882 87.264C163.266 87.456 163.522 87.584 163.65 87.648C163.97 87.776 164.194 88.064 164.322 88.512C165.218 90.496 166.21 92.064 167.298 93.216C168.386 94.368 169.826 94.88 171.618 94.752C178.21 94.304 182.722 92.48 185.154 89.28C185.986 88.256 186.658 87.072 187.17 85.728C187.746 84.448 188.034 83.232 188.034 82.08C188.034 80.416 187.618 79.2 186.786 78.432C186.018 77.664 184.802 77.12 183.138 76.8C181.346 76.48 179.618 76.032 177.954 75.456C176.354 74.88 174.402 74.016 172.098 72.864C170.946 72.288 170.146 71.776 169.698 71.328C169.25 70.88 169.026 70.336 169.026 69.696C169.026 69.056 169.41 67.424 170.178 64.8C170.306 64.416 169.698 63.776 168.354 62.88C167.074 61.984 165.954 61.248 164.994 60.672C161.538 58.624 159.81 55.296 159.81 50.688C159.81 49.408 159.906 48.192 160.098 47.04C161.25 40 164.674 35.008 170.37 32.064C171.714 31.36 173.122 31.008 174.594 31.008C175.682 31.008 176.802 31.168 177.954 31.488C179.106 31.808 179.778 32 179.97 32.064L181.986 32.64C182.946 32.896 183.874 33.024 184.77 33.024C185.986 33.024 187.074 32.8 188.034 32.352C189.058 31.904 190.082 31.2 191.106 30.24C192.578 29.024 194.146 28.416 195.81 28.416C197.026 28.416 198.114 28.768 199.074 29.472C200.034 30.112 200.738 31.072 201.186 32.352C201.314 32.864 201.378 33.28 201.378 33.6C201.378 34.176 201.282 34.624 201.09 34.944C200.898 35.2 200.354 36.032 199.458 37.44C199.01 38.272 198.594 38.976 198.21 39.552C197.826 40.128 197.218 40.768 196.386 41.472C195.81 41.792 195.202 42.048 194.562 42.24C193.922 42.368 193.41 42.496 193.026 42.624C192.706 42.752 192.546 43.008 192.546 43.392ZM172.386 41.952C170.402 44.256 169.41 46.592 169.41 48.96C169.41 50.624 169.922 52.224 170.946 53.76C172.034 55.232 173.666 56.512 175.842 57.6C178.274 56.64 180.162 54.976 181.506 52.608C182.85 50.24 183.522 47.648 183.522 44.832C183.522 43.104 183.266 41.536 182.754 40.128C182.242 38.72 181.218 37.632 179.682 36.864C176.738 38.016 174.306 39.712 172.386 41.952Z" fill="#87BCDE"/>
<path d="M219.279 30.144C219.855 30.08 220.335 30.08 220.719 30.144C221.103 30.144 221.455 30.144 221.775 30.144C222.223 30.08 222.895 30.048 223.791 30.048C228.143 30.048 232.431 31.296 236.655 33.792C238.511 34.944 239.439 36.16 239.439 37.44C239.439 38.848 238.479 40.096 236.559 41.184C234.959 42.144 233.295 43.264 231.567 44.544C228.495 46.592 225.871 48.192 223.695 49.344C221.583 50.496 219.247 51.296 216.687 51.744C216.303 51.872 215.887 52.224 215.439 52.8C215.055 53.312 214.895 53.696 214.959 53.952C215.087 54.336 215.311 55.136 215.631 56.352C215.951 57.504 216.303 58.496 216.687 59.328C217.135 60.096 217.647 60.736 218.223 61.248C218.863 61.76 219.823 62.016 221.103 62.016C222.383 62.016 223.567 61.824 224.655 61.44C228.495 59.648 232.143 57.408 235.599 54.72C236.623 54.016 237.519 53.664 238.287 53.664C239.247 53.664 240.271 54.176 241.359 55.2C242.127 55.904 242.511 56.64 242.511 57.408C242.511 58.24 241.903 59.264 240.687 60.48C235.247 65.792 229.455 68.448 223.311 68.448C221.647 68.448 219.599 68.128 217.167 67.488C213.071 66.464 209.935 64.192 207.759 60.672C205.583 57.152 204.495 53.12 204.495 48.576C204.495 47.168 204.591 45.824 204.783 44.544C204.847 44.096 204.975 43.168 205.167 41.76C205.423 40.288 205.807 39.072 206.319 38.112C208.751 33.312 213.071 30.656 219.279 30.144ZM224.847 37.056C223.695 36.672 222.671 36.48 221.775 36.48C220.303 36.48 219.151 36.928 218.319 37.824C217.487 38.72 216.815 40.064 216.303 41.856C217.839 42.048 219.471 41.664 221.199 40.704C222.991 39.68 224.207 38.464 224.847 37.056Z" fill="#00A676"/>
<path d="M219.279 30.144C219.855 30.08 220.335 30.08 220.719 30.144C221.103 30.144 221.455 30.144 221.775 30.144C222.223 30.08 222.895 30.048 223.791 30.048C228.143 30.048 232.431 31.296 236.655 33.792C238.511 34.944 239.439 36.16 239.439 37.44C239.439 38.848 238.479 40.096 236.559 41.184C234.959 42.144 233.295 43.264 231.567 44.544C228.495 46.592 225.871 48.192 223.695 49.344C221.583 50.496 219.247 51.296 216.687 51.744C216.303 51.872 215.887 52.224 215.439 52.8C215.055 53.312 214.895 53.696 214.959 53.952C215.087 54.336 215.311 55.136 215.631 56.352C215.951 57.504 216.303 58.496 216.687 59.328C217.135 60.096 217.647 60.736 218.223 61.248C218.863 61.76 219.823 62.016 221.103 62.016C222.383 62.016 223.567 61.824 224.655 61.44C228.495 59.648 232.143 57.408 235.599 54.72C236.623 54.016 237.519 53.664 238.287 53.664C239.247 53.664 240.271 54.176 241.359 55.2C242.127 55.904 242.511 56.64 242.511 57.408C242.511 58.24 241.903 59.264 240.687 60.48C235.247 65.792 229.455 68.448 223.311 68.448C221.647 68.448 219.599 68.128 217.167 67.488C213.071 66.464 209.935 64.192 207.759 60.672C205.583 57.152 204.495 53.12 204.495 48.576C204.495 47.168 204.591 45.824 204.783 44.544C204.847 44.096 204.975 43.168 205.167 41.76C205.423 40.288 205.807 39.072 206.319 38.112C208.751 33.312 213.071 30.656 219.279 30.144ZM224.847 37.056C223.695 36.672 222.671 36.48 221.775 36.48C220.303 36.48 219.151 36.928 218.319 37.824C217.487 38.72 216.815 40.064 216.303 41.856C217.839 42.048 219.471 41.664 221.199 40.704C222.991 39.68 224.207 38.464 224.847 37.056Z" fill="#87BCDE"/>
<path d="M270.98 19.488C271.3 19.36 272.004 19.264 273.092 19.2C274.244 19.072 275.268 19.008 276.164 19.008C277.956 19.008 279.588 20.128 281.06 22.368L279.812 23.328C278.34 24.416 276.228 25.248 273.476 25.824C271.044 27.04 269.22 28.064 268.004 28.896C266.852 29.728 265.987 30.656 265.411 31.68C264.9 32.704 264.644 34.016 264.644 35.616C264.644 36.384 264.836 38.368 265.22 41.568L265.7 45.6C266.212 50.528 266.66 54.144 267.044 56.448C267.172 57.28 267.428 58.272 267.812 59.424C268.26 60.512 268.708 61.152 269.156 61.344C269.604 61.536 270.5 61.216 271.844 60.384C274.404 57.312 276.068 55.168 276.836 53.952C277.027 53.632 277.348 53.088 277.796 52.32C278.243 51.552 278.692 50.976 279.14 50.592C279.588 50.144 280.132 49.92 280.772 49.92C280.9 49.92 281.22 49.984 281.732 50.112C282.755 50.432 283.556 50.912 284.132 51.552C284.772 52.192 285.092 53.12 285.092 54.336C285.092 54.912 285.06 55.328 284.996 55.584C284.612 58.144 283.716 60.448 282.308 62.496C280.9 64.544 279.044 66.56 276.74 68.544C275.844 69.376 274.372 69.792 272.324 69.792C270.084 69.792 267.876 69.28 265.7 68.256C263.524 67.296 262.052 66.016 261.284 64.416C259.299 60.128 257.444 54.656 255.715 48C255.268 46.144 254.915 43.2 254.66 39.168L254.372 35.616C254.243 34.144 254.243 33.024 254.372 32.256C254.5 31.424 253.251 30.912 250.628 30.72C249.667 30.656 249.188 30.016 249.188 28.8C249.827 26.752 250.82 25.536 252.163 25.152C253.443 24.768 254.243 23.968 254.563 22.752C254.883 21.472 255.139 20.16 255.331 18.816C255.908 14.656 256.035 10.016 255.715 4.896C255.587 2.464 256.324 1.056 257.924 0.672003L258.788 0.768002C259.108 0.832001 259.844 0.960001 260.996 1.152C262.148 1.28 263.172 1.568 264.068 2.016C266.307 3.232 267.428 5.376 267.428 8.448C267.428 9.728 267.172 11.392 266.66 13.44C266.596 13.76 266.5 14.048 266.372 14.304C266.244 14.56 266.148 14.848 266.084 15.168C265.892 16.128 265.796 16.928 265.796 17.568C265.22 19.488 265.668 20.448 267.14 20.448C267.652 20.448 268.932 20.128 270.98 19.488Z" fill="#00A676"/>
<path d="M270.98 19.488C271.3 19.36 272.004 19.264 273.092 19.2C274.244 19.072 275.268 19.008 276.164 19.008C277.956 19.008 279.588 20.128 281.06 22.368L279.812 23.328C278.34 24.416 276.228 25.248 273.476 25.824C271.044 27.04 269.22 28.064 268.004 28.896C266.852 29.728 265.987 30.656 265.411 31.68C264.9 32.704 264.644 34.016 264.644 35.616C264.644 36.384 264.836 38.368 265.22 41.568L265.7 45.6C266.212 50.528 266.66 54.144 267.044 56.448C267.172 57.28 267.428 58.272 267.812 59.424C268.26 60.512 268.708 61.152 269.156 61.344C269.604 61.536 270.5 61.216 271.844 60.384C274.404 57.312 276.068 55.168 276.836 53.952C277.027 53.632 277.348 53.088 277.796 52.32C278.243 51.552 278.692 50.976 279.14 50.592C279.588 50.144 280.132 49.92 280.772 49.92C280.9 49.92 281.22 49.984 281.732 50.112C282.755 50.432 283.556 50.912 284.132 51.552C284.772 52.192 285.092 53.12 285.092 54.336C285.092 54.912 285.06 55.328 284.996 55.584C284.612 58.144 283.716 60.448 282.308 62.496C280.9 64.544 279.044 66.56 276.74 68.544C275.844 69.376 274.372 69.792 272.324 69.792C270.084 69.792 267.876 69.28 265.7 68.256C263.524 67.296 262.052 66.016 261.284 64.416C259.299 60.128 257.444 54.656 255.715 48C255.268 46.144 254.915 43.2 254.66 39.168L254.372 35.616C254.243 34.144 254.243 33.024 254.372 32.256C254.5 31.424 253.251 30.912 250.628 30.72C249.667 30.656 249.188 30.016 249.188 28.8C249.827 26.752 250.82 25.536 252.163 25.152C253.443 24.768 254.243 23.968 254.563 22.752C254.883 21.472 255.139 20.16 255.331 18.816C255.908 14.656 256.035 10.016 255.715 4.896C255.587 2.464 256.324 1.056 257.924 0.672003L258.788 0.768002C259.108 0.832001 259.844 0.960001 260.996 1.152C262.148 1.28 263.172 1.568 264.068 2.016C266.307 3.232 267.428 5.376 267.428 8.448C267.428 9.728 267.172 11.392 266.66 13.44C266.596 13.76 266.5 14.048 266.372 14.304C266.244 14.56 266.148 14.848 266.084 15.168C265.892 16.128 265.796 16.928 265.796 17.568C265.22 19.488 265.668 20.448 267.14 20.448C267.652 20.448 268.932 20.128 270.98 19.488Z" fill="#87BCDE"/>
<path d="M359.072 22.944C358.752 23.584 357.728 25.344 356 28.224C357.6 29.184 358.72 29.792 359.36 30.048C362.752 31.328 365.28 33.28 366.944 35.904C368.672 38.464 369.536 41.312 369.536 44.448C369.536 47.52 368.736 50.56 367.136 53.568C363.168 60.928 356.768 66.816 347.936 71.232C345.76 72.32 343.616 72.864 341.504 72.864C338.432 72.864 335.584 71.776 332.96 69.6C331.936 68.768 330.72 67.84 329.312 66.816C329.184 67.2 329.024 67.648 328.832 68.16C328.704 68.736 328.544 69.152 328.352 69.408C327.584 70.56 326.624 71.136 325.472 71.136C324.448 71.136 323.52 70.72 322.688 69.888C320.384 67.776 319.232 65.376 319.232 62.688C319.232 60.64 319.2 58.848 319.136 57.312C319.072 55.776 319.008 54.496 318.944 53.472C318.88 52.192 318.816 50.592 318.752 48.672C318.688 46.752 318.656 44.512 318.656 41.952C318.656 37.088 318.912 32.736 319.424 28.896C320.128 23.264 321.472 17.984 323.456 13.056C324.992 9.344 327.264 6.432 330.272 4.32C333.344 2.208 336.96 0.960003 341.12 0.576004C343.04 0.448002 344.512 0.384001 345.536 0.384001C350.272 0.384001 354.24 1.408 357.44 3.456C359.104 4.48 360.384 5.824 361.28 7.488C362.24 9.152 362.72 10.944 362.72 12.864C362.72 14.464 362.368 16.064 361.664 17.664L360.704 19.584C360.256 20.608 359.712 21.728 359.072 22.944ZM351.488 14.976C351.808 14.144 352.096 12.768 352.352 10.848L352.64 8.736C350.72 7.904 348.896 7.488 347.168 7.488C345.696 7.488 344.32 7.712 343.04 8.16C340.288 9.056 337.984 10.432 336.128 12.288C334.336 14.08 332.896 16.064 331.808 18.24C330.784 20.416 329.76 23.104 328.736 26.304C327.968 28.8 327.584 31.584 327.584 34.656C327.584 36.32 327.712 38.752 327.968 41.952C328.096 42.912 328.224 44.48 328.352 46.656C328.416 48.384 328.768 51.936 329.408 57.312L329.792 60.48C330.176 60.608 330.816 60.736 331.712 60.864C332.928 60.992 333.856 61.248 334.496 61.632C335.072 61.952 335.648 62.496 336.224 63.264C336.8 63.968 337.248 64.512 337.568 64.896C341.408 64.128 344.672 62.56 347.36 60.192C350.112 57.824 352.8 54.752 355.424 50.976C357.408 47.904 358.656 45.152 359.168 42.72C359.36 41.76 359.456 40.896 359.456 40.128C359.456 38.4 358.976 37.088 358.016 36.192C357.12 35.296 355.872 34.848 354.272 34.848C353.312 34.848 352.416 34.976 351.584 35.232C348.704 36.064 345.76 37.888 342.752 40.704C341.216 42.048 339.68 42.72 338.144 42.72C337.184 42.72 336.192 42.432 335.168 41.856C333.952 41.152 332.928 40.384 332.096 39.552C331.264 38.72 330.56 37.632 329.984 36.288L332.192 34.752C334.496 33.088 336.256 31.904 337.472 31.2C343.68 27.872 348.352 22.464 351.488 14.976Z" fill="#00A676"/>
<path d="M359.072 22.944C358.752 23.584 357.728 25.344 356 28.224C357.6 29.184 358.72 29.792 359.36 30.048C362.752 31.328 365.28 33.28 366.944 35.904C368.672 38.464 369.536 41.312 369.536 44.448C369.536 47.52 368.736 50.56 367.136 53.568C363.168 60.928 356.768 66.816 347.936 71.232C345.76 72.32 343.616 72.864 341.504 72.864C338.432 72.864 335.584 71.776 332.96 69.6C331.936 68.768 330.72 67.84 329.312 66.816C329.184 67.2 329.024 67.648 328.832 68.16C328.704 68.736 328.544 69.152 328.352 69.408C327.584 70.56 326.624 71.136 325.472 71.136C324.448 71.136 323.52 70.72 322.688 69.888C320.384 67.776 319.232 65.376 319.232 62.688C319.232 60.64 319.2 58.848 319.136 57.312C319.072 55.776 319.008 54.496 318.944 53.472C318.88 52.192 318.816 50.592 318.752 48.672C318.688 46.752 318.656 44.512 318.656 41.952C318.656 37.088 318.912 32.736 319.424 28.896C320.128 23.264 321.472 17.984 323.456 13.056C324.992 9.344 327.264 6.432 330.272 4.32C333.344 2.208 336.96 0.960003 341.12 0.576004C343.04 0.448002 344.512 0.384001 345.536 0.384001C350.272 0.384001 354.24 1.408 357.44 3.456C359.104 4.48 360.384 5.824 361.28 7.488C362.24 9.152 362.72 10.944 362.72 12.864C362.72 14.464 362.368 16.064 361.664 17.664L360.704 19.584C360.256 20.608 359.712 21.728 359.072 22.944ZM351.488 14.976C351.808 14.144 352.096 12.768 352.352 10.848L352.64 8.736C350.72 7.904 348.896 7.488 347.168 7.488C345.696 7.488 344.32 7.712 343.04 8.16C340.288 9.056 337.984 10.432 336.128 12.288C334.336 14.08 332.896 16.064 331.808 18.24C330.784 20.416 329.76 23.104 328.736 26.304C327.968 28.8 327.584 31.584 327.584 34.656C327.584 36.32 327.712 38.752 327.968 41.952C328.096 42.912 328.224 44.48 328.352 46.656C328.416 48.384 328.768 51.936 329.408 57.312L329.792 60.48C330.176 60.608 330.816 60.736 331.712 60.864C332.928 60.992 333.856 61.248 334.496 61.632C335.072 61.952 335.648 62.496 336.224 63.264C336.8 63.968 337.248 64.512 337.568 64.896C341.408 64.128 344.672 62.56 347.36 60.192C350.112 57.824 352.8 54.752 355.424 50.976C357.408 47.904 358.656 45.152 359.168 42.72C359.36 41.76 359.456 40.896 359.456 40.128C359.456 38.4 358.976 37.088 358.016 36.192C357.12 35.296 355.872 34.848 354.272 34.848C353.312 34.848 352.416 34.976 351.584 35.232C348.704 36.064 345.76 37.888 342.752 40.704C341.216 42.048 339.68 42.72 338.144 42.72C337.184 42.72 336.192 42.432 335.168 41.856C333.952 41.152 332.928 40.384 332.096 39.552C331.264 38.72 330.56 37.632 329.984 36.288L332.192 34.752C334.496 33.088 336.256 31.904 337.472 31.2C343.68 27.872 348.352 22.464 351.488 14.976Z" fill="#87BCDE"/>
<path d="M387.381 27.264C388.981 27.712 390.101 28.256 390.741 28.896C391.445 29.536 391.797 30.4 391.797 31.488C391.797 32 391.701 32.672 391.509 33.504C390.805 36.384 390.421 39.264 390.357 42.144C390.293 45.408 390.805 48.416 391.893 51.168C392.277 52.128 392.629 52.832 392.949 53.28C393.333 53.664 393.781 53.856 394.293 53.856C394.933 53.856 395.765 53.28 396.789 52.128C399.157 49.312 400.917 46.496 402.069 43.68C403.221 40.864 403.925 37.952 404.181 34.944C404.373 32.96 404.693 31.712 405.141 31.2C405.397 30.944 405.813 30.784 406.389 30.72C406.965 30.656 407.797 30.624 408.885 30.624C410.613 30.752 411.797 30.912 412.437 31.104C413.141 31.296 413.621 31.616 413.877 32.064C414.133 32.512 414.261 33.248 414.261 34.272L414.165 38.784C414.165 39.744 414.133 41.152 414.069 43.008C413.877 48.768 413.717 53.056 413.589 55.872C413.525 58.112 412.853 60.928 411.573 64.32C411.445 64.512 411.093 64.8 410.517 65.184C409.941 65.504 409.429 65.696 408.981 65.76C408.853 65.76 408.565 65.568 408.117 65.184C407.733 64.736 407.445 64.352 407.253 64.032C406.805 63.008 406.293 61.632 405.717 59.904L404.949 58.08L404.757 57.504L404.469 57.792L402.933 58.752C402.165 59.392 401.333 59.904 400.437 60.288C398.965 61.184 397.205 61.632 395.157 61.632C392.597 61.632 390.165 60.928 387.861 59.52C385.557 58.048 383.733 56.064 382.389 53.568C380.213 49.728 379.125 45.28 379.125 40.224C379.125 37.664 379.477 34.432 380.181 30.528C380.309 29.568 380.917 28.736 382.005 28.032C382.965 27.328 384.085 26.976 385.365 26.976C386.005 26.976 386.677 27.072 387.381 27.264Z" fill="#00A676"/>
<path d="M387.381 27.264C388.981 27.712 390.101 28.256 390.741 28.896C391.445 29.536 391.797 30.4 391.797 31.488C391.797 32 391.701 32.672 391.509 33.504C390.805 36.384 390.421 39.264 390.357 42.144C390.293 45.408 390.805 48.416 391.893 51.168C392.277 52.128 392.629 52.832 392.949 53.28C393.333 53.664 393.781 53.856 394.293 53.856C394.933 53.856 395.765 53.28 396.789 52.128C399.157 49.312 400.917 46.496 402.069 43.68C403.221 40.864 403.925 37.952 404.181 34.944C404.373 32.96 404.693 31.712 405.141 31.2C405.397 30.944 405.813 30.784 406.389 30.72C406.965 30.656 407.797 30.624 408.885 30.624C410.613 30.752 411.797 30.912 412.437 31.104C413.141 31.296 413.621 31.616 413.877 32.064C414.133 32.512 414.261 33.248 414.261 34.272L414.165 38.784C414.165 39.744 414.133 41.152 414.069 43.008C413.877 48.768 413.717 53.056 413.589 55.872C413.525 58.112 412.853 60.928 411.573 64.32C411.445 64.512 411.093 64.8 410.517 65.184C409.941 65.504 409.429 65.696 408.981 65.76C408.853 65.76 408.565 65.568 408.117 65.184C407.733 64.736 407.445 64.352 407.253 64.032C406.805 63.008 406.293 61.632 405.717 59.904L404.949 58.08L404.757 57.504L404.469 57.792L402.933 58.752C402.165 59.392 401.333 59.904 400.437 60.288C398.965 61.184 397.205 61.632 395.157 61.632C392.597 61.632 390.165 60.928 387.861 59.52C385.557 58.048 383.733 56.064 382.389 53.568C380.213 49.728 379.125 45.28 379.125 40.224C379.125 37.664 379.477 34.432 380.181 30.528C380.309 29.568 380.917 28.736 382.005 28.032C382.965 27.328 384.085 26.976 385.365 26.976C386.005 26.976 386.677 27.072 387.381 27.264Z" fill="#87BCDE"/>
<path d="M451.664 52.32C453.456 51.232 454.703 50.688 455.408 50.688C455.983 50.688 456.496 50.944 456.944 51.456C457.456 51.968 458.128 52.864 458.96 54.144C456.656 57.344 453.872 59.936 450.608 61.92C447.344 63.84 443.6 65.376 439.376 66.528C438.544 66.72 437.712 66.816 436.88 66.816C434.704 66.816 432.496 66.208 430.256 64.992C428.08 63.712 426.255 62.08 424.784 60.096C423.312 58.048 422.512 55.904 422.384 53.664C422.256 52 422.191 50.784 422.191 50.016C422.191 43.232 423.983 37.12 427.568 31.68C428.975 29.504 430.608 27.904 432.464 26.88C434.319 25.856 436.24 25.344 438.224 25.344C440.4 25.344 442.448 25.92 444.368 27.072C446.352 28.16 447.888 29.632 448.976 31.488C449.488 32.384 449.743 33.12 449.743 33.696C449.743 34.848 448.752 35.456 446.768 35.52C446.256 35.52 445.648 35.456 444.944 35.328C444.304 35.2 443.824 35.104 443.504 35.04C442.608 34.912 441.936 34.848 441.488 34.848C438.672 34.848 436.751 36.384 435.728 39.456C434.512 42.912 433.616 45.792 433.04 48.096C432.464 50.4 432.176 52.704 432.176 55.008C432.176 56.672 432.432 57.888 432.944 58.656C433.456 59.424 434.255 59.808 435.344 59.808C436.367 59.808 437.84 59.456 439.76 58.752C441.296 58.176 442.896 57.408 444.56 56.448C446.288 55.488 447.952 54.528 449.552 53.568L451.664 52.32Z" fill="#00A676"/>
<path d="M451.664 52.32C453.456 51.232 454.703 50.688 455.408 50.688C455.983 50.688 456.496 50.944 456.944 51.456C457.456 51.968 458.128 52.864 458.96 54.144C456.656 57.344 453.872 59.936 450.608 61.92C447.344 63.84 443.6 65.376 439.376 66.528C438.544 66.72 437.712 66.816 436.88 66.816C434.704 66.816 432.496 66.208 430.256 64.992C428.08 63.712 426.255 62.08 424.784 60.096C423.312 58.048 422.512 55.904 422.384 53.664C422.256 52 422.191 50.784 422.191 50.016C422.191 43.232 423.983 37.12 427.568 31.68C428.975 29.504 430.608 27.904 432.464 26.88C434.319 25.856 436.24 25.344 438.224 25.344C440.4 25.344 442.448 25.92 444.368 27.072C446.352 28.16 447.888 29.632 448.976 31.488C449.488 32.384 449.743 33.12 449.743 33.696C449.743 34.848 448.752 35.456 446.768 35.52C446.256 35.52 445.648 35.456 444.944 35.328C444.304 35.2 443.824 35.104 443.504 35.04C442.608 34.912 441.936 34.848 441.488 34.848C438.672 34.848 436.751 36.384 435.728 39.456C434.512 42.912 433.616 45.792 433.04 48.096C432.464 50.4 432.176 52.704 432.176 55.008C432.176 56.672 432.432 57.888 432.944 58.656C433.456 59.424 434.255 59.808 435.344 59.808C436.367 59.808 437.84 59.456 439.76 58.752C441.296 58.176 442.896 57.408 444.56 56.448C446.288 55.488 447.952 54.528 449.552 53.568L451.664 52.32Z" fill="#87BCDE"/>
<path d="M476.312 24.48C476.312 24.8 476.216 25.568 476.024 26.784C475.896 27.936 475.832 28.864 475.832 29.568C475.832 30.08 475.896 30.4 476.024 30.528L478.808 27.84C479.832 26.688 480.728 25.792 481.496 25.152C483.16 23.616 484.856 22.848 486.584 22.848C487.992 22.848 489.048 23.392 489.752 24.48C490.136 25.12 490.328 25.856 490.328 26.688C490.328 27.328 490.2 27.808 489.944 28.128C488.984 29.6 487.256 31.808 484.76 34.752C483.8 35.776 483.32 36.768 483.32 37.728C483.32 38.624 483.768 39.616 484.664 40.704C485.432 41.6 486.52 42.944 487.928 44.736C490.68 48.256 493.112 51.104 495.224 53.28C497.4 55.392 499.896 57.152 502.712 58.56C503.032 58.688 503.288 59.008 503.48 59.52C503.672 59.968 503.736 60.32 503.672 60.576C503.608 60.896 503.352 61.216 502.904 61.536C502.456 61.856 502.072 61.984 501.752 61.92C500.792 61.664 499.992 61.504 499.352 61.44C496.024 60.8 493.656 60 492.248 59.04C489.944 57.44 486.68 54.656 482.456 50.688C479.896 48.32 478.584 47.104 478.52 47.04L476.792 45.408C475.448 44.064 474.776 43.392 474.776 43.392C474.648 43.712 474.584 44.192 474.584 44.832C474.584 45.408 474.616 46.048 474.68 46.752C474.808 47.392 474.84 47.84 474.776 48.096C474.392 55.264 474.136 60.512 474.008 63.84C473.88 65.952 473.368 67.552 472.472 68.64C471.64 69.728 470.456 70.144 468.92 69.888C468.408 69.824 467.832 69.568 467.192 69.12C466.616 68.672 466.264 68.224 466.136 67.776C465.432 64.96 465.08 62.208 465.08 59.52C465.08 51.776 465.176 44.064 465.368 36.384L466.328 5.088C466.392 1.696 468.152 0 471.608 0C473.976 0 475.704 0.448 476.792 1.344C477.88 2.24 478.36 3.648 478.232 5.568L477.272 15.36C477.016 17.6 476.696 20.64 476.312 24.48Z" fill="#00A676"/>
<path d="M476.312 24.48C476.312 24.8 476.216 25.568 476.024 26.784C475.896 27.936 475.832 28.864 475.832 29.568C475.832 30.08 475.896 30.4 476.024 30.528L478.808 27.84C479.832 26.688 480.728 25.792 481.496 25.152C483.16 23.616 484.856 22.848 486.584 22.848C487.992 22.848 489.048 23.392 489.752 24.48C490.136 25.12 490.328 25.856 490.328 26.688C490.328 27.328 490.2 27.808 489.944 28.128C488.984 29.6 487.256 31.808 484.76 34.752C483.8 35.776 483.32 36.768 483.32 37.728C483.32 38.624 483.768 39.616 484.664 40.704C485.432 41.6 486.52 42.944 487.928 44.736C490.68 48.256 493.112 51.104 495.224 53.28C497.4 55.392 499.896 57.152 502.712 58.56C503.032 58.688 503.288 59.008 503.48 59.52C503.672 59.968 503.736 60.32 503.672 60.576C503.608 60.896 503.352 61.216 502.904 61.536C502.456 61.856 502.072 61.984 501.752 61.92C500.792 61.664 499.992 61.504 499.352 61.44C496.024 60.8 493.656 60 492.248 59.04C489.944 57.44 486.68 54.656 482.456 50.688C479.896 48.32 478.584 47.104 478.52 47.04L476.792 45.408C475.448 44.064 474.776 43.392 474.776 43.392C474.648 43.712 474.584 44.192 474.584 44.832C474.584 45.408 474.616 46.048 474.68 46.752C474.808 47.392 474.84 47.84 474.776 48.096C474.392 55.264 474.136 60.512 474.008 63.84C473.88 65.952 473.368 67.552 472.472 68.64C471.64 69.728 470.456 70.144 468.92 69.888C468.408 69.824 467.832 69.568 467.192 69.12C466.616 68.672 466.264 68.224 466.136 67.776C465.432 64.96 465.08 62.208 465.08 59.52C465.08 51.776 465.176 44.064 465.368 36.384L466.328 5.088C466.392 1.696 468.152 0 471.608 0C473.976 0 475.704 0.448 476.792 1.344C477.88 2.24 478.36 3.648 478.232 5.568L477.272 15.36C477.016 17.6 476.696 20.64 476.312 24.48Z" fill="#87BCDE"/>
<path d="M519.544 70.6521C514.131 70.6521 510.682 68.3319 509.2 63.6914C509.716 63.6914 510.392 63.7236 511.23 63.7881C512.133 63.7881 512.874 63.8525 513.454 63.9814C514.356 64.1103 515.001 64.1748 515.387 64.1748C518.288 64.1748 520.705 62.8857 522.638 60.3077C523.992 58.4386 524.668 56.5373 524.668 54.6038C524.668 53.3147 524.346 52.0579 523.702 50.8334C522.284 48.3198 520.543 45.5484 518.481 42.5192C517.128 40.5212 515.903 38.6199 514.807 36.8153C513.518 34.7528 512.874 32.4648 512.874 29.9512C512.874 27.631 513.518 25.6007 514.807 23.8606C516.161 22.0559 518.126 20.928 520.705 20.4769L523.798 19.8968C527.15 19.2523 529.663 18.9301 531.339 18.9301C534.11 18.9301 536.56 19.5746 538.686 20.8636C539.138 21.1858 539.589 21.7659 540.04 22.6038C540.555 23.3772 540.942 23.9895 541.2 24.4406C540.749 24.634 540.104 24.9562 539.266 25.4074C538.493 25.7941 537.816 26.0197 537.236 26.0841C536.334 26.213 534.98 26.2775 533.176 26.2775C531.436 26.2775 530.114 26.3097 529.212 26.3742C527.15 26.5675 525.506 27.2765 524.282 28.501C523.121 29.6612 522.541 31.0791 522.541 32.7548C522.541 34.0438 522.928 35.3651 523.702 36.7186C525.442 39.6189 527.859 42.9381 530.952 46.6763C533.273 49.5766 534.433 52.5736 534.433 55.6672C534.433 57.3429 534.046 59.1153 533.273 60.9844C530.63 67.4295 526.054 70.6521 519.544 70.6521Z" fill="#00A676"/>
<path fill-rule="evenodd" clip-rule="evenodd" d="M520.845 5.76714C522.135 5.24742 523.602 5.87158 524.121 7.16124C527.629 15.8665 528.811 22.9051 528.693 29.2184C528.577 35.493 527.175 40.9225 525.727 46.2725C525.646 46.5725 525.564 46.8729 525.483 47.1738C522.683 57.4899 519.734 68.3582 524.234 87.0704C524.559 88.4223 523.727 89.7818 522.375 90.107C521.023 90.4321 519.663 89.5998 519.338 88.2479C514.537 68.2845 517.756 56.4226 520.627 45.8404C520.707 45.5451 520.787 45.2508 520.867 44.9573C522.314 39.6074 523.555 34.7145 523.659 29.1249C523.762 23.5739 522.741 17.2062 519.451 9.04331C518.931 7.75365 519.555 6.28686 520.845 5.76714Z" fill="#00A676"/>
</svg>
